<svg width="63" height="666" viewBox="0 0 63 666" fill="none" xmlns="http://www.w3.org/2000/svg">
<g clip-path="url(#clip0_3_338)">
<path d="M42.4341 468.546C42.2713 472.61 41.0927 475.845 38.8243 478.684C38.5264 479.053 38.2377 479.253 37.7604 479.118C37.283 478.983 36.9536 479.199 36.5706 479.487C35.4604 480.335 34.2874 481.089 33.1698 481.922C32.9047 482.134 32.7205 482.43 32.648 482.761C32.5518 483.276 32.278 483.491 31.8173 483.661C23.0414 486.86 13.2904 481.839 10.7981 472.841C10.6741 472.392 10.7371 472.061 11.059 471.764C11.4587 471.395 11.4735 470.994 11.4291 470.458C11.3486 469.177 11.3486 467.893 11.4291 466.612C11.455 466.156 11.4661 465.786 11.1016 465.489C10.6538 465.12 10.6538 464.7 10.8258 464.181C12.8611 458.085 16.9188 454.184 23.2504 452.789C26.2109 452.137 29.1362 452.453 31.9652 453.528C32.1109 453.604 32.2397 453.709 32.344 453.836C32.4482 453.963 32.5259 454.109 32.5722 454.267C32.6305 454.496 32.7356 454.711 32.8812 454.898C33.0267 455.085 33.2094 455.24 33.4177 455.353C34.4894 456.022 35.52 456.755 36.504 457.548C36.6855 457.717 36.9 457.848 37.1343 457.932C37.3685 458.016 37.6175 458.051 37.8658 458.035C38.0315 458.033 38.1958 458.065 38.3488 458.129C38.5018 458.192 38.6402 458.286 38.7558 458.405C41.1429 461.245 42.4459 464.838 42.4341 468.546ZM40.7152 468.576C40.7319 460.738 34.3373 454.287 26.5217 454.258C18.5138 454.228 12.0582 460.562 12.0341 468.482C12.0207 470.367 12.3813 472.236 13.0952 473.982C13.8091 475.727 14.8622 477.314 16.1936 478.651C17.5251 479.988 19.1085 481.048 20.8526 481.771C22.5967 482.494 24.4668 482.865 26.3552 482.862C28.2386 482.868 30.1045 482.502 31.8462 481.787C33.5879 481.072 35.1712 480.02 36.5055 478.693C37.8398 477.366 38.8989 475.79 39.6222 474.054C40.3455 472.317 40.7189 470.456 40.7208 468.576L40.7152 468.576Z" fill="white"/>
<path d="M29.9041 458.004C29.9041 458.004 29.9041 458.019 29.9041 458.024C29.8464 458.255 29.8701 458.499 29.9712 458.714C30.0723 458.929 30.2446 459.103 30.4592 459.207L30.4944 459.223C30.9769 459.44 31.4421 459.693 31.8858 459.981C33.4101 460.966 34.6455 462.337 35.466 463.954L35.479 463.954C36.0887 465.154 36.4522 466.464 36.5485 467.806C36.5744 468.142 36.5818 468.482 36.5744 468.825L32.4835 468.772C31.6517 468.76 30.8243 468.895 30.0392 469.169C29.1706 469.471 28.369 469.939 27.6782 470.545C27.4517 470.744 27.2378 470.957 27.0381 471.182L26.779 471.476L22.2533 476.584L21.4058 477.541L21.3448 477.615C20.9528 477.397 20.5746 477.156 20.2124 476.892C20.1088 476.817 20.0089 476.743 19.9145 476.671L19.9682 476.61L21.5224 474.857L25.1749 470.732C25.9003 469.916 26.3058 468.867 26.3165 467.776C26.322 467.396 26.2791 467.017 26.1888 466.647C26.0223 465.968 25.702 465.336 25.2526 464.8L24.3163 463.692L20.9858 459.729L20.9247 459.661L20.9247 459.648C21.2285 459.462 21.5423 459.292 21.8647 459.14C21.9221 459.112 21.9794 459.087 22.0367 459.061C22.2779 458.957 22.4712 458.766 22.5784 458.527C22.6857 458.287 22.6991 458.016 22.6159 457.768L22.6159 457.747C22.5701 457.611 22.4968 457.487 22.4005 457.38C22.3043 457.274 22.1871 457.189 22.0563 457.13C21.9256 457.071 21.7841 457.04 21.6406 457.038C21.4972 457.036 21.3549 457.064 21.2226 457.119C21.1042 457.173 20.9858 457.226 20.8693 457.282C20.3512 457.53 19.8516 457.815 19.3742 458.135C17.5713 459.338 16.1134 460.989 15.1444 462.925C15.1476 462.927 15.1511 462.928 15.1546 462.928C15.1582 462.928 15.1617 462.927 15.1649 462.925C14.4526 464.334 14.0209 465.868 13.8937 467.442C13.8715 467.722 13.8566 467.996 13.8529 468.291C13.8492 468.587 13.853 468.873 13.8734 469.162C14.0341 471.973 15.1524 474.645 17.0429 476.735C17.4574 477.202 17.9091 477.634 18.3935 478.028L18.3806 478.028C18.5878 478.193 18.8543 478.398 19.1207 478.583C19.4445 478.806 19.7794 479.022 20.0459 479.177C20.2309 479.283 20.4048 479.384 20.588 479.48C21.0331 479.713 21.4929 479.916 21.9646 480.088C23.2917 480.577 24.6929 480.835 26.1073 480.851C27.8863 480.877 29.6499 480.518 31.2771 479.8C31.8063 479.567 32.3182 479.296 32.8091 478.991C34.2025 478.127 35.4112 476.997 36.3657 475.666C37.3202 474.334 38.0017 472.828 38.371 471.232C38.4954 470.66 38.5843 470.081 38.6374 469.498C38.6615 469.228 38.6781 468.943 38.6837 468.657C38.6837 468.363 38.6837 468.075 38.6578 467.787C38.4725 464.855 37.2465 462.084 35.1996 459.973C35.1996 459.973 35.1996 459.988 35.1867 459.988C34.5348 459.32 33.8099 458.727 33.0255 458.22C32.541 457.907 32.0353 457.628 31.5121 457.385L31.3659 457.319C31.2264 457.252 31.074 457.218 30.9196 457.218C30.7652 457.217 30.6127 457.251 30.4729 457.317C30.3331 457.382 30.2096 457.478 30.1113 457.597C30.0129 457.715 29.9422 457.855 29.9041 458.004ZM15.9753 469.143C15.9586 468.873 15.9512 468.602 15.9549 468.326C15.9586 468.051 15.9715 467.793 15.9956 467.53C16.2233 465.005 17.3802 462.654 19.2429 460.93L23.6317 466.154C24.0291 466.625 24.2328 467.229 24.2016 467.844C24.1806 468.274 24.0445 468.69 23.8075 469.049C23.7418 469.149 23.6688 469.244 23.5891 469.333L18.4398 475.15C16.9876 473.468 16.1227 471.359 15.9753 469.143ZM36.2728 470.926C35.6283 473.532 33.9922 475.784 31.7118 477.206C31.2514 477.494 30.7688 477.745 30.2686 477.956C28.9598 478.509 27.5503 478.783 26.1295 478.764C25.2325 478.752 24.341 478.622 23.4781 478.377L27.8392 473.455L28.6145 472.581C28.6719 472.514 28.7311 472.451 28.7995 472.396C29.2757 471.911 29.8456 471.527 30.4747 471.268C31.1038 471.01 31.779 470.881 32.4593 470.891L36.2728 470.926Z" fill="white"/>
<path d="M13.7315 651.57C15.9333 653.857 18.5107 654.969 21.6118 654.969C24.7129 654.969 27.2662 653.86 29.4681 651.568C31.6699 649.275 32.7708 646.549 32.7708 643.288L32.7708 593.66L43.1952 593.66L43.1952 643.288C43.1952 649.394 41.073 654.697 36.8858 659.053C32.6986 663.409 27.5382 665.644 21.6118 665.644C15.6854 665.644 10.5194 663.427 6.31187 659.053C2.10435 654.679 0.000609641 649.394 0.000609374 643.288L0.000607205 593.66L10.451 593.66L10.451 643.288C10.451 646.549 11.5241 649.259 13.7315 651.57Z" fill="white"/>
<path d="M-3.60115e-06 500.157L25.8742 536.012L57.4677 536.012L63 546.688L25.8742 546.688L0 582.542L-7.85587e-07 564.569L16.745 541.351L-2.81549e-06 518.131L-3.60115e-06 500.157Z" fill="white"/>
<path d="M-3.78808e-06 351.13L43.1947 389.13L43.1947 399.791L0 437.791L-6.15454e-07 423.711L33.2309 394.461L-3.17142e-06 365.237L-3.78808e-06 351.13Z" fill="white"/>
<path d="M32.7646 265.119L32.7646 337.107L43.1965 337.107L43.1965 265.119L32.7646 265.119Z" fill="white"/>
<path d="M16.3657 265.119L26.8142 265.119L26.8142 337.107L16.3472 337.107L16.3657 265.119Z" fill="white"/>
<path d="M-3.14671e-06 265.119L0 337.107L10.3948 337.107L10.3948 265.119L-3.14671e-06 265.119Z" fill="white"/>
<path d="M23.9796 182.082C27.9058 178.535 32.6038 176.74 37.9807 176.74L43.1966 176.74L43.1966 187.443L37.9807 187.443C34.9037 187.443 32.3336 188.551 30.1262 190.853C27.9188 193.155 26.8142 195.841 26.8142 199.133L26.8328 248.728L16.3454 248.728L16.362 190.626C16.3724 190.202 16.2992 189.781 16.1465 189.386C15.9938 188.991 15.7646 188.629 15.472 188.322C15.2073 188.038 14.8856 187.813 14.5279 187.662C14.1702 187.51 13.7845 187.436 13.396 187.443C13.0102 187.437 12.6273 187.512 12.2725 187.664C11.9177 187.815 11.5988 188.04 11.3367 188.322C10.7466 188.943 10.4266 189.771 10.4467 190.626L10.4652 248.728L-0.00183105 248.728L-0.00183359 190.626C-0.00183376 186.821 1.31741 183.531 3.92259 180.835C6.51298 178.116 9.70844 176.733 13.396 176.733C15.9252 176.724 18.4016 177.455 20.5196 178.835L20.5418 178.85C21.8652 179.722 23.028 180.816 23.9796 182.082Z" fill="white"/>
<path d="M29.7968 88.3718C33.4807 88.3718 36.6779 89.7536 39.3016 92.4802C41.892 95.1661 43.1872 98.4524 43.1872 102.247L43.1872 158.644L32.7628 158.644L32.7627 102.247C32.7737 101.824 32.6983 101.404 32.5411 101.011C32.384 100.619 32.1484 100.262 31.8487 99.9635C31.5895 99.6764 31.2714 99.4486 30.916 99.2953C30.5606 99.1419 30.1764 99.0668 29.7894 99.075C29.3984 99.068 29.0104 99.1434 28.6507 99.2965C28.291 99.4496 27.9678 99.6769 27.7022 99.9635C27.41 100.266 27.1811 100.624 27.029 101.016C26.8768 101.408 26.8043 101.826 26.8159 102.247L26.8159 146.513C26.8159 150.291 25.4967 153.577 22.8952 156.279C20.2937 158.982 17.0927 160.36 13.3903 160.36C9.68793 160.36 6.51661 158.986 3.91328 156.279C1.30994 153.573 -0.00744673 150.291 -0.00744689 146.513L-0.00744936 90.0861L10.4429 90.0861L10.4429 146.513C10.43 146.929 10.5022 147.344 10.6549 147.731C10.8075 148.118 11.0376 148.471 11.331 148.767C11.5876 149.059 11.9045 149.293 12.2598 149.453C12.6152 149.612 13.0008 149.693 13.3903 149.69C13.7843 149.695 14.1747 149.615 14.5348 149.456C14.895 149.296 15.2166 149.061 15.4775 148.767C15.7709 148.471 16.0008 148.118 16.1532 147.731C16.3056 147.343 16.3772 146.929 16.3638 146.513L16.3638 102.249C16.3638 98.4506 17.6848 95.1625 20.29 92.4766C22.8915 89.7556 26.0907 88.3718 29.7968 88.3718Z" fill="white"/>
<path d="M32.7646 0L32.7646 71.9883L43.1965 71.9883L43.1965 -4.55991e-07L32.7646 0Z" fill="white"/>
<path d="M16.3657 -8.08768e-10L26.8142 -4.57527e-07L26.8142 71.9883L16.3472 71.9883L16.3657 -8.08768e-10Z" fill="white"/>
<path d="M-3.14671e-06 0L0 71.9883L10.3948 71.9883L10.3948 -4.54373e-07L-3.14671e-06 0Z" fill="white"/>
</g>
<defs>
<clipPath id="clip0_3_338">
<rect width="665.645" height="63" fill="white" transform="translate(0 665.645) rotate(-90)"/>
</clipPath>
</defs>
</svg>
