<svg width="137" height="137" viewBox="0 0 137 137" fill="none" xmlns="http://www.w3.org/2000/svg">
<g opacity="0.8">
<g clip-path="url(#clip0_316_34)">
<path d="M68.2368 121.902C54.3997 121.345 43.3822 117.342 33.7126 109.627C32.4411 108.609 31.7784 107.63 32.2365 106.007C32.6946 104.383 31.9586 103.266 30.958 101.965C28.069 98.207 25.5047 94.1992 22.6646 90.4002C22.0304 89.5512 20.8496 88.8204 19.8143 88.628C18.0614 88.3033 17.3284 87.3779 16.7533 85.8021C5.85293 55.9655 22.9517 22.8074 53.6036 14.341C55.1305 13.9195 56.2605 14.1323 57.2683 15.2307C58.5122 16.5836 59.8967 16.6335 61.7198 16.5052C66.0665 16.1999 70.459 16.27 74.8149 16.5133C76.3724 16.6008 77.6276 16.6365 78.6425 15.3935C79.8885 13.8727 81.3248 13.8667 83.092 14.4571C103.871 21.3467 117.144 35.1726 121.893 56.6974C124.115 66.7682 123.036 76.7076 119.395 86.3294C119.055 87.2293 117.848 88.119 116.871 88.3908C115.148 88.8703 114.137 89.7253 113.17 91.2716C110.891 94.9136 108.396 98.4149 105.696 101.757C104.509 103.224 103.932 104.505 104.037 106.388C104.092 107.389 103.56 108.788 102.803 109.413C92.3392 118.051 80.2061 121.945 68.2368 121.902ZM68.135 116.054C94.825 116.113 116.794 94.3714 116.896 67.8025C116.997 40.576 95.4236 18.6277 68.4699 18.5412C41.3514 18.4547 19.5181 40.1626 19.4957 67.2334C19.4774 94.2033 41.1854 115.994 68.1391 116.054H68.135Z" fill="#BBBBBB"/>
<path d="M104.14 79.2769C104.118 79.2769 104.095 79.2524 104.072 79.2524C103.285 79.0572 102.454 79.1397 101.721 79.486C100.987 79.8322 100.396 80.421 100.046 81.153C100.026 81.1916 100.008 81.2313 99.991 81.2721C96.7086 88.5827 91.0212 94.5487 83.8756 98.1764L83.898 98.2232C79.8103 100.292 75.3521 101.528 70.7826 101.859C69.639 101.944 68.4816 101.973 67.3103 101.945L67.4925 88.0345C67.539 84.5393 66.8292 81.0754 65.4118 77.8802C63.9944 74.685 61.9029 71.834 59.2806 69.5227L58.282 68.6392L40.8839 53.2557L37.6264 50.3749L37.376 50.1641C38.1159 48.8312 38.9387 47.5461 39.8395 46.3162C40.096 45.961 40.3485 45.6199 40.5948 45.2983L40.7984 45.4855L46.7688 50.7647L60.8167 63.1839C63.5885 65.641 67.1514 67.0195 70.8552 67.0679C74.5589 67.1163 78.1566 65.8313 80.9917 63.4475L84.7816 60.2695L98.2737 48.9548L98.5068 48.7512L98.5536 48.7277C99.1881 49.761 99.7658 50.8281 100.284 51.9242C100.378 52.1166 100.468 52.313 100.559 52.5095C101.32 54.2003 103.198 55.0778 104.956 54.4782L105.025 54.4559C106.969 53.7911 107.988 51.5924 107.163 49.7163C106.983 49.3091 106.799 48.9096 106.609 48.5181C105.762 46.7556 104.793 45.0548 103.708 43.4282C99.6086 37.3004 93.9857 32.3446 87.3917 29.0475C87.3829 29.0567 87.3763 29.0676 87.3723 29.0795C87.3682 29.0915 87.3669 29.1042 87.3683 29.1167C82.5674 26.6975 77.3433 25.2311 71.9848 24.7985C71.0299 24.7205 70.0652 24.675 69.0907 24.6621C68.0965 24.6485 67.1091 24.6702 66.1284 24.7272C56.5553 25.2767 47.4569 29.079 40.3393 35.5044C38.7547 36.9156 37.2862 38.4519 35.9478 40.0985L35.9254 40.0537C35.3645 40.755 34.7039 41.661 34.0524 42.5986C33.2899 43.698 32.5509 44.8381 32.0276 45.741C31.6666 46.3457 31.3225 46.9616 30.9954 47.5887C30.202 49.0997 29.5103 50.662 28.9249 52.2652C26.6919 58.289 25.8676 64.7442 26.5151 71.136C27.1627 77.5277 29.265 83.6863 32.6608 89.1399C38.51 98.5449 47.9608 105.501 59.1065 108.05H59.1228C61.0705 108.473 63.0422 108.776 65.027 108.958C65.9432 109.041 66.9072 109.097 67.8864 109.112H67.9129C68.9105 109.118 69.8986 109.09 70.8772 109.028C80.8626 108.396 90.2961 104.227 97.4858 97.2684C97.4634 97.246 97.44 97.246 97.44 97.2226C101.125 93.6285 104.126 89.3945 106.296 84.7271C106.372 84.5628 106.447 84.3986 106.521 84.2344C107.443 82.1995 106.345 79.8123 104.14 79.2769ZM66.2068 31.9222C67.1264 31.8611 68.0534 31.8367 68.9879 31.8489C69.9 31.8611 70.8036 31.9076 71.6987 31.9884C80.2996 32.7624 88.3088 36.695 94.1805 43.0271L76.3854 57.9515C75.0273 59.1013 73.3337 59.781 71.5575 59.8888C69.7813 59.9967 68.0178 59.5271 66.5305 58.5501C66.1904 58.3266 65.8666 58.0793 65.5614 57.8101L45.7488 40.3011C51.4779 35.3616 58.6588 32.4205 66.2068 31.9222ZM60.1367 100.93C51.1613 98.7261 43.5439 93.051 38.7808 85.4264C35.2227 79.7411 33.3808 73.1497 33.4762 66.4434C33.5121 63.3943 33.954 60.3636 34.7904 57.4313L51.5552 72.2611L54.5338 74.8956C54.7547 75.091 54.9715 75.2916 55.1802 75.4962C56.8316 77.1163 58.1373 79.0543 59.0184 81.1932C59.8995 83.3322 60.3378 85.6277 60.3067 87.9408L60.1367 100.93Z" fill="#D7D7D7"/>
<path d="M68.4851 128.89C53.4205 128.87 38.9002 123.255 27.7409 113.136C16.5815 103.016 9.57853 89.1117 8.09036 74.1208C6.60219 59.1298 10.7349 44.1204 19.6868 32.0041C28.6388 19.8877 41.7718 11.5282 56.5385 8.54687C71.3052 5.56554 86.6529 8.17495 99.6045 15.8691C112.556 23.5632 122.188 35.7935 126.633 50.1876C131.077 64.5816 130.017 80.1134 123.658 93.7701C117.299 107.427 106.095 118.235 92.218 124.098C84.7099 127.276 76.6379 128.905 68.4851 128.89ZM68.4851 9.08856C36.0457 9.08856 9.65395 35.4803 9.65395 67.9208C9.65395 100.361 36.0457 126.752 68.4851 126.752C100.925 126.752 127.316 100.36 127.316 67.9208C127.316 35.4814 100.925 9.08349 68.4851 9.08349V9.08856Z" fill="#898989"/>
<path d="M68.4732 2.14251C104.904 2.14251 134.437 31.6757 134.437 68.1066C134.437 104.537 104.904 134.071 68.4732 134.071C32.0423 134.071 2.50912 104.537 2.50912 68.1066C2.50912 31.6757 32.0423 2.14251 68.4732 2.14251ZM68.4732 0.106582C54.9228 0.0862515 41.678 4.13243 30.4522 11.7216C19.52 19.101 10.9627 29.4927 5.8175 41.6375C1.40748 52.0584 -0.328941 63.4159 0.765983 74.6784C1.86091 85.9409 5.75248 96.7513 12.0871 106.128C19.4663 117.06 29.8581 125.617 42.0031 130.762C52.4239 135.172 63.7815 136.909 75.044 135.814C86.3064 134.719 97.1169 130.827 106.493 124.493C117.425 117.113 125.983 106.721 131.128 94.5757C135.538 84.1549 137.274 72.7973 136.179 61.5348C135.084 50.2724 131.193 39.4619 124.858 30.0856C117.478 19.1535 107.086 10.5964 94.9413 5.45089C86.5684 1.90658 77.5663 0.0885382 68.4742 0.105588L68.4732 0.106582Z" fill="#737373"/>
</g>
</g>
<defs>
<clipPath id="clip0_316_34">
<rect width="136" height="136" fill="white" transform="translate(0.472656 0.106445)"/>
</clipPath>
</defs>
</svg>
