<svg width="137" height="136" viewBox="0 0 137 136" fill="none" xmlns="http://www.w3.org/2000/svg">
<g opacity="0.5">
<g clip-path="url(#clip0_7_5638)">
<path d="M68.3524 121.795C54.5153 121.238 43.4978 117.235 33.8282 109.52C32.5567 108.502 31.894 107.523 32.3521 105.9C32.8102 104.276 32.0742 103.159 31.0736 101.858C28.1846 98.1001 25.6203 94.0923 22.7802 90.2933C22.146 89.4443 20.9652 88.7135 19.9299 88.5211C18.177 88.1963 17.444 87.2709 16.8689 85.6951C5.96853 55.8586 23.0673 22.7005 53.7192 14.234C55.2461 13.8126 56.3761 14.0254 57.3839 15.1238C58.6278 16.4766 60.0123 16.5266 61.8354 16.3983C66.1821 16.0929 70.5746 16.1631 74.9305 16.4064C76.488 16.4939 77.7432 16.5295 78.7581 15.2866C80.0041 13.7658 81.4404 13.7597 83.2076 14.3502C103.986 21.2397 117.26 35.0657 122.008 56.5905C124.231 66.6612 123.151 76.6007 119.51 86.2225C119.17 87.1224 117.964 88.0121 116.987 88.2839C115.263 88.7633 114.252 89.6184 113.285 91.1647C111.007 94.8066 108.511 98.308 105.811 101.65C104.625 103.117 104.047 104.398 104.152 106.281C104.207 107.282 103.676 108.681 102.918 109.306C92.4548 117.944 80.3217 121.838 68.3524 121.795ZM68.2506 115.947C94.9406 116.006 116.909 94.2644 117.011 67.6956C117.113 40.4691 95.5392 18.5208 68.5855 18.4342C41.467 18.3477 19.6337 40.0557 19.6113 67.1264C19.593 94.0964 41.301 115.887 68.2547 115.947H68.2506Z" fill="#5D9DA4"/>
<path d="M104.256 79.17C104.234 79.17 104.211 79.1455 104.188 79.1455C103.401 78.9502 102.57 79.0327 101.836 79.379C101.103 79.7253 100.511 80.3141 100.162 81.046C100.142 81.0847 100.124 81.1244 100.107 81.1651C96.8245 88.4758 91.1371 94.4417 83.9915 98.0695L84.0139 98.1163C79.9261 100.185 75.468 101.421 70.8984 101.752C69.7549 101.837 68.5975 101.866 67.4261 101.838L67.6083 87.9275C67.6548 84.4324 66.9451 80.9684 65.5277 77.7732C64.1102 74.578 62.0187 71.7271 59.3964 69.4158L58.3978 68.5322L40.9998 53.1487L37.7423 50.2679L37.4919 50.0572C38.2318 48.7243 39.0545 47.4391 39.9553 46.2093C40.2119 45.854 40.4643 45.513 40.7107 45.1913L40.9143 45.3786L46.8846 50.6578L60.9325 63.077C63.7044 65.534 67.2673 66.9125 70.971 66.9609C74.6748 67.0093 78.2725 65.7244 81.1076 63.3406L84.8974 60.1626L98.3895 48.8478L98.6227 48.6443L98.6695 48.6208C99.3039 49.6541 99.8816 50.7211 100.4 51.8172C100.494 52.0096 100.584 52.2061 100.675 52.4026C101.436 54.0934 103.313 54.9709 105.071 54.3713L105.141 54.3489C107.085 53.6842 108.104 51.4854 107.278 49.6093C107.099 49.2021 106.915 48.8027 106.725 48.4111C105.878 46.6486 104.909 44.9478 103.823 43.3213C99.7244 37.1935 94.1016 32.2376 87.5075 28.9406C87.4988 28.9497 87.4922 28.9606 87.4881 28.9726C87.4841 28.9846 87.4827 28.9972 87.4841 29.0098C82.6832 26.5905 77.4592 25.1241 72.1006 24.6916C71.1458 24.6135 70.1811 24.5681 69.2065 24.5552C68.2123 24.5416 67.2249 24.5633 66.2443 24.6203C56.6712 25.1698 47.5727 28.972 40.4552 35.3975C38.8706 36.8087 37.402 38.345 36.0637 39.9916L36.0413 39.9467C35.4804 40.6481 34.8197 41.5541 34.1682 42.4916C33.4058 43.591 32.6667 44.7312 32.1435 45.6341C31.7824 46.2388 31.4384 46.8547 31.1113 47.4817C30.3178 48.9928 29.6261 50.555 29.0407 52.1582C26.8077 58.1821 25.9834 64.6373 26.631 71.029C27.2786 77.4207 29.3808 83.5794 32.7767 89.033C38.6259 98.4379 48.0767 105.394 59.2224 107.943H59.2386C61.1863 108.366 63.1581 108.669 65.1428 108.851C66.059 108.934 67.023 108.99 68.0023 109.005H68.0288C69.0264 109.011 70.0145 108.983 70.9931 108.921C80.9785 108.289 90.4119 104.12 97.6016 97.1615C97.5793 97.1391 97.5558 97.1391 97.5558 97.1156C101.241 93.5216 104.242 89.2876 106.412 84.6201C106.487 84.4559 106.562 84.2917 106.637 84.1275C107.558 82.0925 106.461 79.7054 104.256 79.17ZM66.3227 31.8152C67.2422 31.7542 68.1692 31.7298 69.1037 31.742C70.0158 31.7542 70.9194 31.8007 71.8146 31.8814C80.4154 32.6555 88.4246 36.588 94.2963 42.9202L76.5013 57.8446C75.1432 58.9944 73.4495 59.674 71.6733 59.7819C69.8971 59.8898 68.1337 59.4201 66.6464 58.4431C66.3063 58.2196 65.9824 57.9724 65.6773 57.7031L45.8646 40.1942C51.5937 35.2546 58.7746 32.3135 66.3227 31.8152ZM60.2525 100.823C51.2771 98.6192 43.6597 92.944 38.8967 85.3195C35.3385 79.6341 33.4966 73.0427 33.592 66.3364C33.6279 63.2874 34.0699 60.2567 34.9062 57.3244L51.6711 72.1542L54.6497 74.7886C54.8706 74.9841 55.0874 75.1847 55.2961 75.3893C56.9474 77.0093 58.2531 78.9473 59.1343 81.0863C60.0154 83.2253 60.4536 85.5208 60.4225 87.8339L60.2525 100.823Z" fill="#76CDE0"/>
<path d="M68.6018 128.784C53.5372 128.764 39.0169 123.149 27.8576 113.03C16.6982 102.91 9.69523 89.0057 8.20706 74.0148C6.71888 59.0238 10.8516 44.0145 19.8035 31.8981C28.7555 19.7818 41.8885 11.4222 56.6552 8.44091C71.4219 5.45958 86.7696 8.06899 99.7212 15.7631C112.673 23.4572 122.305 35.6875 126.75 50.0816C131.194 64.4757 130.134 80.0074 123.775 93.6642C117.416 107.321 106.212 118.129 92.3347 123.992C84.8266 127.17 76.7546 128.799 68.6018 128.784ZM68.6018 8.9826C36.1624 8.9826 9.77065 35.3744 9.77065 67.8149C9.77065 100.255 36.1624 126.646 68.6018 126.646C101.041 126.646 127.433 100.254 127.433 67.8149C127.433 35.3754 101.041 8.97753 68.6018 8.97753V8.9826Z" fill="#3A5D61"/>
<path d="M68.5887 2.03606C105.02 2.03606 134.553 31.5692 134.553 68.0001C134.553 104.431 105.02 133.964 68.5887 133.964C32.1578 133.964 2.6246 104.431 2.6246 68.0001C2.6246 31.5692 32.1578 2.03606 68.5887 2.03606ZM68.5887 0.000136355C55.0383 -0.0201938 41.7935 4.02599 30.5677 11.6152C19.6355 18.9945 11.0782 29.3863 5.93298 41.5311C1.52296 51.9519 -0.213463 63.3095 0.881461 74.572C1.97638 85.8344 5.86795 96.6448 12.2026 106.021C19.5818 116.954 29.9736 125.511 42.1186 130.656C52.5394 135.066 63.897 136.802 75.1595 135.707C86.4219 134.612 97.2324 130.721 106.609 124.386C117.541 117.006 126.098 106.614 131.243 94.4693C135.653 84.0484 137.39 72.6909 136.295 61.4284C135.2 50.1659 131.308 39.3554 124.974 29.9792C117.594 19.0471 107.202 10.4899 95.0568 5.34445C86.6839 1.80014 77.6818 -0.0179071 68.5897 -0.00085775L68.5887 0.000136355Z" fill="#3A5D61"/>
</g>
</g>
<defs>
<clipPath id="clip0_7_5638">
<rect width="136" height="136" fill="white" transform="translate(0.588623)"/>
</clipPath>
</defs>
</svg>
