<?xml version="1.0" encoding="utf-8"?>
<!-- Generator: Adobe Illustrator 25.2.3, SVG Export Plug-In . SVG Version: 6.00 Build 0)  -->
<svg version="1.0" id="Layer_1" xmlns="http://www.w3.org/2000/svg" xmlns:xlink="http://www.w3.org/1999/xlink" x="0px" y="0px"
	 viewBox="0 0 600 457.5" style="enable-background:new 0 0 600 457.5;" xml:space="preserve">
<style type="text/css">
	.st0{fill:#DADAD9;}
</style>
<g>
	
		<rect id="Rectangle_15_00000032634953063999672160000005290248706925263249_" x="27.7" y="245.2" class="st0" width="10" height="2.9"/>
	
		<rect id="Rectangle_14_00000078021255570107503600000013388382448128398486_" x="27.7" y="425.1" class="st0" width="10" height="1.4"/>
	
		<rect id="Rectangle_14_00000015342358045779503040000000167282553644073658_" x="27.7" y="105.6" class="st0" width="10" height="1.4"/>
	
		<rect id="Rectangle_19_00000017474346540707817920000003832452552835669177_" x="47.5" y="355.8" class="st0" width="15.5" height="0.3"/>
	
		<rect id="Rectangle_19_00000028302097335371879800000009972455221973842355_" x="47.5" y="267.1" class="st0" width="7.6" height="0.3"/>
	<rect x="39.1" y="247.7" class="st0" width="26.1" height="0.3"/>
	
		<rect id="Rectangle_13_00000084494299205964688200000002266883904468001424_" x="30.9" y="182" class="st0" width="6.7" height="3.6"/>
	
		<rect id="Rectangle_16_00000162310626121417301440000003700766865435582643_" x="47.8" y="188.5" class="st0" width="12.7" height="0.9"/>
	
		<rect id="Rectangle_18_00000061449031925157595500000002391259449442516886_" x="48" y="210.8" class="st0" width="12.7" height="0.3"/>
	
		<rect id="Rectangle_202_00000062882498685005782270000000779994406231930785_" x="47.8" y="40.4" class="st0" width="4.6" height="0.6"/>
	
		<rect id="Rectangle_22_00000160186291764841867910000012562398831042704265_" x="559.3" y="387.6" class="st0" width="13.1" height="1.2"/>
	
		<rect id="Rectangle_22_00000050622900446756439370000000912664759725723319_" x="559.3" y="256.7" class="st0" width="13.1" height="1.2"/>
	
		<rect id="Rectangle_23_00000073684661996443091640000011033075670960910015_" x="548.6" y="248.4" class="st0" width="13.1" height="0.4"/>
	
		<rect id="Rectangle_90_00000000912396532367902910000012675106064582065796_" x="571.1" y="427.3" class="st0" width="1.2" height="1.5"/>
	
		<rect id="Rectangle_21_00000109734587950591429030000014488148879068691609_" x="559.4" y="181.1" class="st0" width="13.1" height="1.2"/>
	
		<rect id="Rectangle_20_00000123410848449617087800000005605522002230205098_" x="570.7" y="178.4" class="st0" width="1.8" height="1.5"/>
	
		<rect id="Rectangle_203_00000019673590515093522200000000899490641504785826_" x="559.5" y="37" class="st0" width="5.8" height="0.3"/>
	
		<rect id="Rectangle_18_00000152258871634234627790000000859629973256477064_" x="534.7" y="116.1" class="st0" width="13.5" height="0.3"/>
</g>
</svg>
