<?xml version="1.0" encoding="utf-8"?>
<!-- Generator: Adobe Illustrator 25.2.3, SVG Export Plug-In . SVG Version: 6.00 Build 0)  -->
<svg version="1.0" id="Layer_1" xmlns="http://www.w3.org/2000/svg" xmlns:xlink="http://www.w3.org/1999/xlink" x="0px" y="0px"
	 viewBox="0 0 600 209" style="enable-background:new 0 0 600 209;" xml:space="preserve">
<style type="text/css">
	.st0{opacity:0.7;}
	.st1{fill:#FFFFFF;}
</style>
<g class="st0">
	<polygon class="st1" points="364.4,28.1 354,28.1 354,27.2 364,27.2 371,20.2 525.2,20.2 525.2,21.1 371.4,21.1 	"/>
	<path class="st1" d="M539.4,26.9h-14.1V17h14.1V26.9z M525.8,26.4h13.1v-8.9h-13.1V26.4z"/>
	<rect x="544.9" y="20.2" class="st1" width="41.5" height="0.9"/>
	<rect x="490" y="97.3" class="st1" width="41.5" height="0.9"/>
	<rect x="472.4" y="133.6" class="st1" width="41.5" height="0.9"/>
	<g>
		<rect x="508.8" y="80.1" class="st1" width="17.4" height="1.1"/>
		<rect x="449.2" y="152.1" class="st1" width="17.4" height="1.1"/>
		<rect x="449.3" y="152.1" class="st1" width="17.4" height="1.1"/>
		<rect x="412.6" y="187.7" class="st1" width="17.4" height="1.1"/>
		<rect x="412.8" y="187.7" class="st1" width="17.4" height="1.1"/>
		<rect x="483.7" y="116" class="st1" width="17.4" height="1.1"/>
	</g>
	<rect x="508.2" y="44.3" class="st1" width="5.3" height="5.3"/>
	<rect x="458.9" y="167.4" class="st1" width="5.3" height="5.3"/>
	<rect x="546.7" y="22.9" class="st1" width="2.6" height="2.6"/>
	<g>
		<path class="st1" d="M443.4,167.9c0.4,0,0.8,0.2,1,0.5c0.3,0.4,0.4,1,0.4,1.8c0,0.9-0.1,1.5-0.4,1.8c-0.2,0.3-0.6,0.5-1,0.5
			c-0.4,0-0.8-0.2-1.1-0.5c-0.3-0.3-0.4-0.9-0.4-1.8c0-0.9,0.1-1.5,0.4-1.8C442.6,168.1,442.9,167.9,443.4,167.9z M443.4,168.6
			c-0.1,0-0.2,0-0.3,0.1c-0.1,0.1-0.1,0.2-0.2,0.4c-0.1,0.2-0.1,0.6-0.1,1.1c0,0.5,0,0.9,0.1,1.1c0.1,0.2,0.1,0.3,0.2,0.4
			c0.1,0.1,0.2,0.1,0.3,0.1c0.1,0,0.2,0,0.3-0.1c0.1-0.1,0.1-0.2,0.2-0.4c0.1-0.2,0.1-0.6,0.1-1.1c0-0.5,0-0.9-0.1-1.1
			c-0.1-0.2-0.1-0.3-0.2-0.4C443.6,168.7,443.5,168.6,443.4,168.6z"/>
		<path class="st1" d="M445.5,172.5v-0.9h0.9v0.9H445.5z"/>
		<path class="st1" d="M446.9,168.8V168h3v0.6c-0.2,0.2-0.5,0.6-0.7,1c-0.3,0.5-0.4,0.9-0.6,1.4c-0.1,0.5-0.2,1-0.2,1.4h-0.8
			c0-0.6,0.1-1.3,0.4-1.9c0.2-0.7,0.6-1.2,1-1.7H446.9z"/>
		<path class="st1" d="M452,172.5v-0.9h-1.9v-0.8l2-2.9h0.7v2.9h0.6v0.8h-0.6v0.9H452z M452,170.8v-1.5l-1,1.5H452z"/>
	</g>
	<g>
		<path class="st1" d="M472.4,146.7c0.4,0,0.8,0.2,1,0.5c0.3,0.4,0.4,1,0.4,1.8c0,0.9-0.1,1.5-0.4,1.8c-0.2,0.3-0.6,0.5-1,0.5
			c-0.4,0-0.8-0.2-1.1-0.5c-0.3-0.3-0.4-0.9-0.4-1.8c0-0.9,0.1-1.5,0.4-1.8C471.6,146.9,472,146.7,472.4,146.7z M472.4,147.4
			c-0.1,0-0.2,0-0.3,0.1c-0.1,0.1-0.1,0.2-0.2,0.4c-0.1,0.2-0.1,0.6-0.1,1.1c0,0.5,0,0.9,0.1,1.1c0.1,0.2,0.1,0.3,0.2,0.4
			c0.1,0.1,0.2,0.1,0.3,0.1c0.1,0,0.2,0,0.3-0.1c0.1-0.1,0.1-0.2,0.2-0.4c0.1-0.2,0.1-0.6,0.1-1.1c0-0.5,0-0.9-0.1-1.1
			c-0.1-0.2-0.1-0.3-0.2-0.4C472.6,147.5,472.5,147.4,472.4,147.4z"/>
		<path class="st1" d="M474.5,151.3v-0.9h0.9v0.9H474.5z"/>
		<path class="st1" d="M476,150.2l0.8-0.1c0,0.2,0.1,0.3,0.2,0.4c0.1,0.1,0.2,0.1,0.3,0.1c0.2,0,0.3-0.1,0.5-0.2
			c0.1-0.2,0.2-0.5,0.2-1c-0.2,0.3-0.5,0.4-0.8,0.4c-0.4,0-0.7-0.1-0.9-0.4c-0.3-0.3-0.4-0.6-0.4-1.1c0-0.5,0.1-0.8,0.4-1.1
			c0.3-0.3,0.6-0.4,1-0.4c0.5,0,0.8,0.2,1.1,0.5c0.3,0.4,0.4,0.9,0.4,1.8c0,0.8-0.2,1.4-0.5,1.8c-0.3,0.4-0.7,0.6-1.2,0.6
			c-0.4,0-0.6-0.1-0.9-0.3C476.2,150.9,476.1,150.6,476,150.2z M478,148.3c0-0.3-0.1-0.5-0.2-0.7c-0.1-0.2-0.3-0.2-0.4-0.2
			c-0.2,0-0.3,0.1-0.4,0.2c-0.1,0.1-0.2,0.3-0.2,0.6c0,0.3,0.1,0.5,0.2,0.6c0.1,0.1,0.3,0.2,0.4,0.2c0.2,0,0.3-0.1,0.4-0.2
			C477.9,148.8,478,148.6,478,148.3z"/>
		<path class="st1" d="M479.4,150.1l0.9-0.1c0,0.2,0.1,0.4,0.2,0.5c0.1,0.1,0.3,0.2,0.4,0.2c0.2,0,0.3-0.1,0.5-0.2
			c0.1-0.1,0.2-0.4,0.2-0.7c0-0.3-0.1-0.5-0.2-0.6c-0.1-0.1-0.3-0.2-0.5-0.2c-0.2,0-0.5,0.1-0.7,0.3l-0.7-0.1l0.4-2.4h2.3v0.8h-1.6
			l-0.1,0.8c0.2-0.1,0.4-0.1,0.6-0.1c0.4,0,0.7,0.1,1,0.4c0.3,0.3,0.4,0.6,0.4,1.1c0,0.4-0.1,0.7-0.3,1c-0.3,0.4-0.7,0.6-1.2,0.6
			c-0.4,0-0.8-0.1-1-0.3C479.6,150.8,479.4,150.5,479.4,150.1z"/>
	</g>
	<g>
		<path class="st1" d="M506.8,114.6l0.8-0.1c0,0.2,0.1,0.4,0.2,0.5c0.1,0.1,0.3,0.2,0.4,0.2c0.2,0,0.3-0.1,0.5-0.2
			c0.1-0.1,0.2-0.3,0.2-0.6c0-0.2-0.1-0.4-0.2-0.5c-0.1-0.1-0.3-0.2-0.4-0.2c-0.1,0-0.2,0-0.4,0.1l0.1-0.7c0.2,0,0.4,0,0.5-0.2
			c0.1-0.1,0.2-0.3,0.2-0.4c0-0.2,0-0.3-0.1-0.4c-0.1-0.1-0.2-0.1-0.4-0.1c-0.1,0-0.3,0.1-0.4,0.2c-0.1,0.1-0.2,0.3-0.2,0.5
			l-0.8-0.1c0.1-0.3,0.1-0.5,0.3-0.7c0.1-0.2,0.3-0.3,0.5-0.4c0.2-0.1,0.4-0.1,0.7-0.1c0.4,0,0.8,0.1,1,0.4c0.2,0.2,0.3,0.5,0.3,0.8
			c0,0.4-0.2,0.7-0.7,1c0.3,0.1,0.5,0.2,0.6,0.4c0.2,0.2,0.2,0.4,0.2,0.7c0,0.4-0.1,0.7-0.4,1c-0.3,0.3-0.7,0.4-1.1,0.4
			c-0.4,0-0.8-0.1-1-0.4C507,115.3,506.8,115,506.8,114.6z"/>
	</g>
	<g>
		<path class="st1" d="M530.1,79.5h-0.9v-3.3c-0.3,0.3-0.7,0.5-1.1,0.7v-0.8c0.2-0.1,0.5-0.2,0.7-0.4c0.3-0.2,0.4-0.4,0.5-0.7h0.7
			V79.5z"/>
		<path class="st1" d="M531.3,78.3l0.9-0.1c0,0.2,0.1,0.4,0.2,0.5c0.1,0.1,0.3,0.2,0.4,0.2c0.2,0,0.3-0.1,0.5-0.2
			c0.1-0.1,0.2-0.4,0.2-0.7c0-0.3-0.1-0.5-0.2-0.6c-0.1-0.1-0.3-0.2-0.5-0.2c-0.2,0-0.5,0.1-0.7,0.3l-0.7-0.1l0.4-2.4h2.3v0.8h-1.6
			l-0.1,0.8c0.2-0.1,0.4-0.1,0.6-0.1c0.4,0,0.7,0.1,1,0.4c0.3,0.3,0.4,0.6,0.4,1.1c0,0.4-0.1,0.7-0.3,1c-0.3,0.4-0.7,0.6-1.2,0.6
			c-0.4,0-0.8-0.1-1-0.3C531.5,79,531.3,78.7,531.3,78.3z"/>
	</g>
	<g>
		<path class="st1" d="M515.3,48l0.8-0.1c0,0.2,0.1,0.4,0.2,0.5c0.1,0.1,0.3,0.2,0.4,0.2c0.2,0,0.3-0.1,0.5-0.2
			c0.1-0.1,0.2-0.3,0.2-0.6c0-0.2-0.1-0.4-0.2-0.5c-0.1-0.1-0.3-0.2-0.4-0.2c-0.1,0-0.2,0-0.4,0.1l0.1-0.7c0.2,0,0.4,0,0.5-0.2
			s0.2-0.3,0.2-0.4c0-0.2,0-0.3-0.1-0.4c-0.1-0.1-0.2-0.1-0.4-0.1c-0.1,0-0.3,0.1-0.4,0.2s-0.2,0.3-0.2,0.5l-0.8-0.1
			c0.1-0.3,0.1-0.5,0.3-0.7c0.1-0.2,0.3-0.3,0.5-0.4c0.2-0.1,0.4-0.1,0.7-0.1c0.4,0,0.8,0.1,1,0.4c0.2,0.2,0.3,0.5,0.3,0.8
			c0,0.4-0.2,0.7-0.7,1c0.3,0.1,0.5,0.2,0.6,0.4c0.2,0.2,0.2,0.4,0.2,0.7c0,0.4-0.1,0.7-0.4,1c-0.3,0.3-0.7,0.4-1.1,0.4
			c-0.4,0-0.8-0.1-1-0.4C515.5,48.7,515.3,48.4,515.3,48z"/>
		<path class="st1" d="M518.7,48.1l0.9-0.1c0,0.2,0.1,0.4,0.2,0.5c0.1,0.1,0.3,0.2,0.4,0.2c0.2,0,0.3-0.1,0.5-0.2
			c0.1-0.1,0.2-0.4,0.2-0.7c0-0.3-0.1-0.5-0.2-0.6s-0.3-0.2-0.5-0.2c-0.2,0-0.5,0.1-0.7,0.3l-0.7-0.1l0.4-2.4h2.3v0.8h-1.6l-0.1,0.8
			c0.2-0.1,0.4-0.1,0.6-0.1c0.4,0,0.7,0.1,1,0.4c0.3,0.3,0.4,0.6,0.4,1.1c0,0.4-0.1,0.7-0.3,1c-0.3,0.4-0.7,0.6-1.2,0.6
			c-0.4,0-0.8-0.1-1-0.3C518.9,48.7,518.7,48.4,518.7,48.1z"/>
	</g>
	<g>
		<path class="st1" d="M528,23.6v-1.2h-1.2v-0.8h1.2v-1.2h0.8v1.2h1.2v0.8h-1.2v1.2H528z"/>
		<path class="st1" d="M531.4,23.1l0.9-0.1c0,0.2,0.1,0.4,0.2,0.5c0.1,0.1,0.3,0.2,0.4,0.2c0.2,0,0.3-0.1,0.5-0.2
			c0.1-0.1,0.2-0.4,0.2-0.7c0-0.3-0.1-0.5-0.2-0.6c-0.1-0.1-0.3-0.2-0.5-0.2c-0.2,0-0.5,0.1-0.7,0.3l-0.7-0.1l0.4-2.4h2.3v0.8h-1.6
			l-0.1,0.8c0.2-0.1,0.4-0.1,0.6-0.1c0.4,0,0.7,0.1,1,0.4c0.3,0.3,0.4,0.6,0.4,1.1c0,0.4-0.1,0.7-0.3,1c-0.3,0.4-0.7,0.6-1.2,0.6
			c-0.4,0-0.8-0.1-1-0.3C531.6,23.8,531.4,23.5,531.4,23.1z"/>
		<path class="st1" d="M534.4,23.3l0.8-0.1c0,0.2,0.1,0.3,0.2,0.4c0.1,0.1,0.2,0.1,0.3,0.1c0.2,0,0.3-0.1,0.5-0.2
			c0.1-0.2,0.2-0.5,0.2-1c-0.2,0.3-0.5,0.4-0.8,0.4c-0.4,0-0.7-0.1-0.9-0.4c-0.3-0.3-0.4-0.6-0.4-1.1c0-0.5,0.1-0.8,0.4-1.1
			c0.3-0.3,0.6-0.4,1-0.4c0.5,0,0.8,0.2,1.1,0.5c0.3,0.4,0.4,0.9,0.4,1.8c0,0.8-0.2,1.4-0.5,1.8c-0.3,0.4-0.7,0.6-1.2,0.6
			c-0.4,0-0.6-0.1-0.9-0.3C534.6,23.9,534.5,23.6,534.4,23.3z M536.4,21.4c0-0.3-0.1-0.5-0.2-0.7c-0.1-0.2-0.3-0.2-0.4-0.2
			c-0.2,0-0.3,0.1-0.4,0.2c-0.1,0.1-0.2,0.3-0.2,0.6c0,0.3,0.1,0.5,0.2,0.6c0.1,0.1,0.3,0.2,0.4,0.2c0.2,0,0.3-0.1,0.4-0.2
			C536.3,21.8,536.4,21.6,536.4,21.4z"/>
	</g>
	<g>
		<circle class="st1" cx="460.7" cy="193.5" r="0.8"/>
		<polygon class="st1" points="460.6,193.3 373.4,193.3 373.4,191.6 372.9,191.6 372.9,193.7 460.6,193.7 		"/>
	</g>
	<g>
		<circle class="st1" cx="449.3" cy="191.2" r="0.6"/>
		
			<rect x="318.8" y="191.1" transform="matrix(-1 1.796229e-10 -1.796229e-10 -1 768.4663 382.4842)" class="st1" width="130.9" height="0.3"/>
	</g>
	
		<rect x="450.6" y="191.1" transform="matrix(-1 8.990751e-11 -8.990751e-11 -1 914.0692 382.4842)" class="st1" width="12.8" height="0.3"/>
	<polygon class="st1" points="245.7,28.1 235.3,28.1 228.4,21.1 74.5,21.1 74.5,20.2 228.7,20.2 235.7,27.2 245.7,27.2 	"/>
	<path class="st1" d="M74.5,26.9H60.3V17h14.1V26.9z M60.9,26.4H74v-8.9H60.9V26.4z"/>
	<rect x="13.3" y="20.2" class="st1" width="41.5" height="0.9"/>
	<rect x="68.2" y="97.3" class="st1" width="41.5" height="0.9"/>
	<rect x="85.8" y="133.6" class="st1" width="41.5" height="0.9"/>
	<g>
		
			<rect x="73.5" y="80.1" transform="matrix(-1 4.479249e-11 -4.479249e-11 -1 164.4021 161.307)" class="st1" width="17.4" height="1.1"/>
		
			<rect x="133.2" y="152.1" transform="matrix(-1 4.489685e-11 -4.489685e-11 -1 283.7422 305.2899)" class="st1" width="17.4" height="1.1"/>
		
			<rect x="133" y="152.1" transform="matrix(-1 4.500121e-11 -4.500121e-11 -1 283.39 305.2899)" class="st1" width="17.4" height="1.1"/>
		
			<rect x="169.7" y="187.7" transform="matrix(-1 4.510558e-11 -4.510558e-11 -1 356.7935 376.3761)" class="st1" width="17.4" height="1.1"/>
		
			<rect x="169.5" y="187.7" transform="matrix(-1 4.479249e-11 -4.479249e-11 -1 356.4413 376.3761)" class="st1" width="17.4" height="1.1"/>
		
			<rect x="98.6" y="116" transform="matrix(-1 4.500121e-11 -4.500121e-11 -1 214.6714 233.0933)" class="st1" width="17.4" height="1.1"/>
	</g>
	
		<rect x="86.3" y="44.3" transform="matrix(-1 4.410771e-11 -4.410771e-11 -1 177.8729 93.9671)" class="st1" width="5.3" height="5.3"/>
	
		<rect x="135.6" y="167.4" transform="matrix(-1 4.479693e-11 -4.479693e-11 -1 276.4869 340.1501)" class="st1" width="5.3" height="5.3"/>
	
		<rect x="50.4" y="22.9" transform="matrix(-1 4.445232e-11 -4.445232e-11 -1 103.3439 48.4767)" class="st1" width="2.6" height="2.6"/>
	<g>
		<path class="st1" d="M148.2,167.9c0.4,0,0.8,0.2,1,0.5c0.3,0.4,0.4,1,0.4,1.8c0,0.9-0.1,1.5-0.4,1.8c-0.2,0.3-0.6,0.5-1,0.5
			c-0.4,0-0.8-0.2-1.1-0.5c-0.3-0.3-0.4-0.9-0.4-1.8c0-0.9,0.1-1.5,0.4-1.8C147.4,168.1,147.7,167.9,148.2,167.9z M148.2,168.6
			c-0.1,0-0.2,0-0.3,0.1c-0.1,0.1-0.1,0.2-0.2,0.4c-0.1,0.2-0.1,0.6-0.1,1.1c0,0.5,0,0.9,0.1,1.1c0.1,0.2,0.1,0.3,0.2,0.4
			c0.1,0.1,0.2,0.1,0.3,0.1c0.1,0,0.2,0,0.3-0.1c0.1-0.1,0.1-0.2,0.2-0.4c0.1-0.2,0.1-0.6,0.1-1.1c0-0.5,0-0.9-0.1-1.1
			c-0.1-0.2-0.1-0.3-0.2-0.4C148.4,168.7,148.3,168.6,148.2,168.6z"/>
		<path class="st1" d="M150.3,172.5v-0.9h0.9v0.9H150.3z"/>
		<path class="st1" d="M151.7,168.8V168h3v0.6c-0.2,0.2-0.5,0.6-0.7,1s-0.4,0.9-0.6,1.4c-0.1,0.5-0.2,1-0.2,1.4h-0.8
			c0-0.6,0.1-1.3,0.4-1.9c0.2-0.7,0.6-1.2,1-1.7H151.7z"/>
		<path class="st1" d="M156.8,172.5v-0.9H155v-0.8l2-2.9h0.7v2.9h0.6v0.8h-0.6v0.9H156.8z M156.8,170.8v-1.5l-1,1.5H156.8z"/>
	</g>
	<g>
		<path class="st1" d="M118.8,146.7c0.4,0,0.8,0.2,1,0.5c0.3,0.4,0.4,1,0.4,1.8c0,0.9-0.1,1.5-0.4,1.8c-0.2,0.3-0.6,0.5-1,0.5
			c-0.4,0-0.8-0.2-1.1-0.5c-0.3-0.3-0.4-0.9-0.4-1.8c0-0.9,0.1-1.5,0.4-1.8C118,146.9,118.4,146.7,118.8,146.7z M118.8,147.4
			c-0.1,0-0.2,0-0.3,0.1c-0.1,0.1-0.1,0.2-0.2,0.4c-0.1,0.2-0.1,0.6-0.1,1.1c0,0.5,0,0.9,0.1,1.1c0.1,0.2,0.1,0.3,0.2,0.4
			c0.1,0.1,0.2,0.1,0.3,0.1s0.2,0,0.3-0.1c0.1-0.1,0.1-0.2,0.2-0.4c0.1-0.2,0.1-0.6,0.1-1.1c0-0.5,0-0.9-0.1-1.1
			c-0.1-0.2-0.1-0.3-0.2-0.4C119,147.5,118.9,147.4,118.8,147.4z"/>
		<path class="st1" d="M120.9,151.3v-0.9h0.9v0.9H120.9z"/>
		<path class="st1" d="M122.4,150.2l0.8-0.1c0,0.2,0.1,0.3,0.2,0.4s0.2,0.1,0.3,0.1c0.2,0,0.3-0.1,0.5-0.2c0.1-0.2,0.2-0.5,0.2-1
			c-0.2,0.3-0.5,0.4-0.8,0.4c-0.4,0-0.7-0.1-0.9-0.4c-0.3-0.3-0.4-0.6-0.4-1.1c0-0.5,0.1-0.8,0.4-1.1c0.3-0.3,0.6-0.4,1-0.4
			c0.5,0,0.8,0.2,1.1,0.5c0.3,0.4,0.4,0.9,0.4,1.8c0,0.8-0.2,1.4-0.5,1.8c-0.3,0.4-0.7,0.6-1.2,0.6c-0.4,0-0.6-0.1-0.9-0.3
			C122.6,150.9,122.4,150.6,122.4,150.2z M124.3,148.3c0-0.3-0.1-0.5-0.2-0.7c-0.1-0.2-0.3-0.2-0.4-0.2c-0.2,0-0.3,0.1-0.4,0.2
			c-0.1,0.1-0.2,0.3-0.2,0.6c0,0.3,0.1,0.5,0.2,0.6c0.1,0.1,0.3,0.2,0.4,0.2c0.2,0,0.3-0.1,0.4-0.2
			C124.3,148.8,124.3,148.6,124.3,148.3z"/>
		<path class="st1" d="M125.8,150.1l0.9-0.1c0,0.2,0.1,0.4,0.2,0.5c0.1,0.1,0.3,0.2,0.4,0.2c0.2,0,0.3-0.1,0.5-0.2
			c0.1-0.1,0.2-0.4,0.2-0.7c0-0.3-0.1-0.5-0.2-0.6c-0.1-0.1-0.3-0.2-0.5-0.2c-0.2,0-0.5,0.1-0.7,0.3l-0.7-0.1l0.4-2.4h2.3v0.8H127
			l-0.1,0.8c0.2-0.1,0.4-0.1,0.6-0.1c0.4,0,0.7,0.1,1,0.4c0.3,0.3,0.4,0.6,0.4,1.1c0,0.4-0.1,0.7-0.3,1c-0.3,0.4-0.7,0.6-1.2,0.6
			c-0.4,0-0.8-0.1-1-0.3C126,150.8,125.8,150.5,125.8,150.1z"/>
	</g>
	<g>
		<path class="st1" d="M90.2,114.6l0.8-0.1c0,0.2,0.1,0.4,0.2,0.5c0.1,0.1,0.3,0.2,0.4,0.2c0.2,0,0.3-0.1,0.5-0.2
			c0.1-0.1,0.2-0.3,0.2-0.6c0-0.2-0.1-0.4-0.2-0.5c-0.1-0.1-0.3-0.2-0.4-0.2c-0.1,0-0.2,0-0.4,0.1l0.1-0.7c0.2,0,0.4,0,0.5-0.2
			c0.1-0.1,0.2-0.3,0.2-0.4c0-0.2,0-0.3-0.1-0.4c-0.1-0.1-0.2-0.1-0.4-0.1c-0.1,0-0.3,0.1-0.4,0.2c-0.1,0.1-0.2,0.3-0.2,0.5
			l-0.8-0.1c0.1-0.3,0.1-0.5,0.3-0.7c0.1-0.2,0.3-0.3,0.5-0.4c0.2-0.1,0.4-0.1,0.7-0.1c0.4,0,0.8,0.1,1,0.4c0.2,0.2,0.3,0.5,0.3,0.8
			c0,0.4-0.2,0.7-0.7,1c0.3,0.1,0.5,0.2,0.6,0.4c0.2,0.2,0.2,0.4,0.2,0.7c0,0.4-0.1,0.7-0.4,1c-0.3,0.3-0.7,0.4-1.1,0.4
			c-0.4,0-0.8-0.1-1-0.4C90.4,115.3,90.2,115,90.2,114.6z"/>
	</g>
	<g>
		<path class="st1" d="M68.1,79.5h-0.9v-3.3c-0.3,0.3-0.7,0.5-1.1,0.7v-0.8c0.2-0.1,0.5-0.2,0.7-0.4c0.3-0.2,0.4-0.4,0.5-0.7h0.7
			V79.5z"/>
		<path class="st1" d="M69.3,78.3l0.9-0.1c0,0.2,0.1,0.4,0.2,0.5c0.1,0.1,0.3,0.2,0.4,0.2c0.2,0,0.3-0.1,0.5-0.2
			c0.1-0.1,0.2-0.4,0.2-0.7c0-0.3-0.1-0.5-0.2-0.6c-0.1-0.1-0.3-0.2-0.5-0.2c-0.2,0-0.5,0.1-0.7,0.3l-0.7-0.1l0.4-2.4h2.3v0.8h-1.6
			l-0.1,0.8c0.2-0.1,0.4-0.1,0.6-0.1c0.4,0,0.7,0.1,1,0.4c0.3,0.3,0.4,0.6,0.4,1.1c0,0.4-0.1,0.7-0.3,1c-0.3,0.4-0.7,0.6-1.2,0.6
			c-0.4,0-0.8-0.1-1-0.3C69.5,79,69.4,78.7,69.3,78.3z"/>
	</g>
	<g>
		<path class="st1" d="M78.5,48l0.8-0.1c0,0.2,0.1,0.4,0.2,0.5s0.3,0.2,0.4,0.2c0.2,0,0.3-0.1,0.5-0.2c0.1-0.1,0.2-0.3,0.2-0.6
			c0-0.2-0.1-0.4-0.2-0.5c-0.1-0.1-0.3-0.2-0.4-0.2c-0.1,0-0.2,0-0.4,0.1l0.1-0.7c0.2,0,0.4,0,0.5-0.2c0.1-0.1,0.2-0.3,0.2-0.4
			c0-0.2,0-0.3-0.1-0.4c-0.1-0.1-0.2-0.1-0.4-0.1c-0.1,0-0.3,0.1-0.4,0.2s-0.2,0.3-0.2,0.5l-0.8-0.1c0.1-0.3,0.1-0.5,0.3-0.7
			c0.1-0.2,0.3-0.3,0.5-0.4c0.2-0.1,0.4-0.1,0.7-0.1c0.4,0,0.8,0.1,1,0.4c0.2,0.2,0.3,0.5,0.3,0.8c0,0.4-0.2,0.7-0.7,1
			c0.3,0.1,0.5,0.2,0.6,0.4c0.2,0.2,0.2,0.4,0.2,0.7c0,0.4-0.1,0.7-0.4,1c-0.3,0.3-0.7,0.4-1.1,0.4c-0.4,0-0.8-0.1-1-0.4
			C78.7,48.7,78.5,48.4,78.5,48z"/>
		<path class="st1" d="M81.9,48.1l0.9-0.1c0,0.2,0.1,0.4,0.2,0.5c0.1,0.1,0.3,0.2,0.4,0.2c0.2,0,0.3-0.1,0.5-0.2
			c0.1-0.1,0.2-0.4,0.2-0.7c0-0.3-0.1-0.5-0.2-0.6c-0.1-0.1-0.3-0.2-0.5-0.2c-0.2,0-0.5,0.1-0.7,0.3L82,47.1l0.4-2.4h2.3v0.8h-1.6
			L83,46.3c0.2-0.1,0.4-0.1,0.6-0.1c0.4,0,0.7,0.1,1,0.4c0.3,0.3,0.4,0.6,0.4,1.1c0,0.4-0.1,0.7-0.3,1c-0.3,0.4-0.7,0.6-1.2,0.6
			c-0.4,0-0.8-0.1-1-0.3C82.1,48.7,82,48.4,81.9,48.1z"/>
	</g>
	<g>
		<path class="st1" d="M63.2,23.6v-1.2h-1.2v-0.8h1.2v-1.2H64v1.2h1.2v0.8H64v1.2H63.2z"/>
		<path class="st1" d="M66.6,23.1l0.9-0.1c0,0.2,0.1,0.4,0.2,0.5c0.1,0.1,0.3,0.2,0.4,0.2c0.2,0,0.3-0.1,0.5-0.2
			c0.1-0.1,0.2-0.4,0.2-0.7c0-0.3-0.1-0.5-0.2-0.6C68.4,22,68.3,22,68.1,22c-0.2,0-0.5,0.1-0.7,0.3l-0.7-0.1l0.4-2.4h2.3v0.8h-1.6
			l-0.1,0.8c0.2-0.1,0.4-0.1,0.6-0.1c0.4,0,0.7,0.1,1,0.4c0.3,0.3,0.4,0.6,0.4,1.1c0,0.4-0.1,0.7-0.3,1c-0.3,0.4-0.7,0.6-1.2,0.6
			c-0.4,0-0.8-0.1-1-0.3C66.8,23.8,66.6,23.5,66.6,23.1z"/>
		<path class="st1" d="M69.6,23.3l0.8-0.1c0,0.2,0.1,0.3,0.2,0.4c0.1,0.1,0.2,0.1,0.3,0.1c0.2,0,0.3-0.1,0.5-0.2
			c0.1-0.2,0.2-0.5,0.2-1c-0.2,0.3-0.5,0.4-0.8,0.4c-0.4,0-0.7-0.1-0.9-0.4c-0.3-0.3-0.4-0.6-0.4-1.1c0-0.5,0.1-0.8,0.4-1.1
			c0.3-0.3,0.6-0.4,1-0.4c0.5,0,0.8,0.2,1.1,0.5c0.3,0.4,0.4,0.9,0.4,1.8c0,0.8-0.2,1.4-0.5,1.8c-0.3,0.4-0.7,0.6-1.2,0.6
			c-0.4,0-0.6-0.1-0.9-0.3C69.8,23.9,69.7,23.6,69.6,23.3z M71.6,21.4c0-0.3-0.1-0.5-0.2-0.7c-0.1-0.2-0.3-0.2-0.4-0.2
			c-0.2,0-0.3,0.1-0.4,0.2c-0.1,0.1-0.2,0.3-0.2,0.6c0,0.3,0.1,0.5,0.2,0.6c0.1,0.1,0.3,0.2,0.4,0.2c0.2,0,0.3-0.1,0.4-0.2
			C71.5,21.8,71.6,21.6,71.6,21.4z"/>
	</g>
	<g>
		<circle class="st1" cx="139" cy="193.5" r="0.8"/>
		<polygon class="st1" points="139.1,193.3 226.3,193.3 226.3,191.6 226.8,191.6 226.8,193.7 139.1,193.7 		"/>
	</g>
	<g>
		<circle class="st1" cx="150.4" cy="191.2" r="0.6"/>
		<rect x="150" y="191.1" class="st1" width="130.9" height="0.3"/>
	</g>
	<rect x="136.3" y="191.1" class="st1" width="12.8" height="0.3"/>
</g>
</svg>
