<svg width="182" height="16" viewBox="0 0 182 16" fill="none" xmlns="http://www.w3.org/2000/svg">
<path d="M13.0578 15.4327C13.7912 15.4327 14.4189 15.1718 14.9407 14.6499C15.4555 14.1351 15.7129 13.511 15.7129 12.7776V6.13445H7.30324V9.67816H12.1692V11.889H3.75953V3.92359H12.1692V5.24587H15.7129V3.03502C15.7129 2.3016 15.4555 1.67395 14.9407 1.15209C14.4189 0.637287 13.7912 0.379883 13.0578 0.379883H2.87096C2.13753 0.379883 1.51342 0.637287 0.99861 1.15209C0.47675 1.67395 0.21582 2.3016 0.21582 3.03502V12.7776C0.21582 13.511 0.47675 14.1351 0.99861 14.6499C1.51342 15.1718 2.13753 15.4327 2.87096 15.4327H13.0578Z" fill="white"/>
<path d="M19.3455 9.67816H34.3984V6.13445H19.3455V9.67816ZM19.3455 3.92359H34.3984V0.379883H19.3455V3.92359ZM19.3455 15.4327H34.3984V11.889H19.3455V15.4327Z" fill="white"/>
<path d="M50.4286 0.379883V10.1965L42.0295 0.379883H38.0309V15.4327H41.5746V5.60554L49.9738 15.4327H53.9723V0.379883H50.4286Z" fill="white"/>
<path d="M57.6049 9.67816H72.6577V6.13445H57.6049V9.67816ZM57.6049 3.92359H72.6577V0.379883H57.6049V3.92359ZM57.6049 15.4327H72.6577V11.889H57.6049V15.4327Z" fill="white"/>
<path d="M91.7874 8.33472C91.7874 7.81286 91.6252 7.35095 91.3008 6.94897C90.9835 6.547 90.5674 6.28959 90.0526 6.17676L89.8622 6.13445L79.834 6.12387V3.92359H88.2437V5.24587H91.7874V3.03502C91.7874 2.3016 91.53 1.67395 91.0152 1.15209C90.4934 0.637287 89.8657 0.379883 89.1323 0.379883H78.9455C78.212 0.379883 77.5879 0.637287 77.0731 1.15209C76.5512 1.67395 76.2903 2.3016 76.2903 3.03502V7.45673C76.2903 7.98564 76.4525 8.45108 76.7769 8.85306C77.1013 9.25503 77.5174 9.51243 78.0251 9.62527L78.2156 9.66758L88.2437 9.67816V11.889H79.834V10.5562H76.2903V12.7776C76.2903 13.511 76.5512 14.1351 77.0731 14.6499C77.5879 15.1718 78.212 15.4327 78.9455 15.4327H89.1323C89.8657 15.4327 90.4934 15.1718 91.0152 14.6499C91.53 14.1351 91.7874 13.511 91.7874 12.7776V8.33472Z" fill="white"/>
<path d="M95.42 15.4327H98.9637V0.379883H95.42V15.4327Z" fill="white"/>
<path d="M118.093 8.33472C118.093 7.81286 117.931 7.35095 117.607 6.94897C117.289 6.547 116.873 6.28959 116.359 6.17676L116.168 6.13445L106.14 6.12387V3.92359H114.55V5.24587H118.093V3.03502C118.093 2.3016 117.836 1.67395 117.321 1.15209C116.799 0.637287 116.172 0.379883 115.438 0.379883H105.251C104.518 0.379883 103.894 0.637287 103.379 1.15209C102.857 1.67395 102.596 2.3016 102.596 3.03502V7.45673C102.596 7.98564 102.758 8.45108 103.083 8.85306C103.407 9.25503 103.823 9.51243 104.331 9.62527L104.522 9.66758L114.55 9.67816V11.889H106.14V10.5562H102.596V12.7776C102.596 13.511 102.857 14.1351 103.379 14.6499C103.894 15.1718 104.518 15.4327 105.251 15.4327H115.438C116.172 15.4327 116.799 15.1718 117.321 14.6499C117.836 14.1351 118.093 13.511 118.093 12.7776V8.33472Z" fill="white"/>
<path d="M140.581 0.379883V10.1965L132.182 0.379883H128.183V15.4327H131.727V5.60554L140.126 15.4327H144.124V0.379883H140.581Z" fill="white"/>
<path d="M147.757 0.379883V15.4327H151.301V9.67816H162.81V6.13445H151.301V3.92359H162.81V0.379883H147.757Z" fill="white"/>
<path d="M166.442 0.379883V3.92359H172.197V15.4327H175.741V3.92359H181.495V0.379883H166.442Z" fill="white"/>
</svg>
