<svg width="1404" height="1150" viewBox="0 0 1404 1150" fill="none" xmlns="http://www.w3.org/2000/svg">
<path d="M1404 897.092H1378.26V900.387H1404V897.092Z" fill="#DADAD9"/>
<path d="M1353.17 737.02H1313.22V737.671H1353.17V737.02Z" fill="#DADAD9"/>
<path d="M1353.18 531.867H1333.49V532.519H1353.18V531.867Z" fill="#DADAD9"/>
<path d="M1307.5 487.816H1374.66V487.079H1307.5V487.816Z" fill="#DADAD9"/>
<path d="M1395.83 335.221H1378.67V343.576H1395.83V335.221Z" fill="#DADAD9"/>
<path d="M1352.2 350.166H1319.53V352.149H1352.2V350.166Z" fill="#DADAD9"/>
<path d="M1351.78 401.62H1319.11V402.281H1351.78V401.62Z" fill="#DADAD9"/>
<path d="M1352.2 7.80774H1340.35V9.17668H1352.2V7.80774Z" fill="#DADAD9"/>
<path d="M64.1198 810.575H0.319824V813.256H64.1198V810.575Z" fill="#DADAD9"/>
<path d="M34.0298 507.944H0.319824V510.625H34.0298V507.944Z" fill="#DADAD9"/>
<path d="M61.6499 488.637H27.9399V489.619H61.6499V488.637Z" fill="#DADAD9"/>
<path d="M3.45006 902.332H0.310059V905.683H3.45006V902.332Z" fill="#DADAD9"/>
<path d="M33.71 333.106H0V335.788H33.71V333.106Z" fill="#DADAD9"/>
<path d="M4.54 326.894H0V330.425H4.54V326.894Z" fill="#DADAD9"/>
<path d="M33.5401 0H18.6401V0.67031H33.5401V0Z" fill="#DADAD9"/>
<path d="M97.36 182.759H62.52V183.429H97.36V182.759Z" fill="#DADAD9"/>
<path d="M65.5099 1059.14H53.6899V1060.51H65.5099V1059.14Z" fill="#DADAD9"/>
<path d="M1384.29 1051.32H1369.43V1051.99H1384.29V1051.32Z" fill="#DADAD9"/>
</svg>
