<?xml version="1.0" encoding="utf-8"?>
<!-- Generator: Adobe Illustrator 25.2.3, SVG Export Plug-In . SVG Version: 6.00 Build 0)  -->
<svg version="1.0" id="katman_1" xmlns="http://www.w3.org/2000/svg" xmlns:xlink="http://www.w3.org/1999/xlink" x="0px" y="0px"
	 viewBox="0 0 163.4 28.6" style="enable-background:new 0 0 163.4 28.6;" xml:space="preserve">
<style type="text/css">
	.st0{fill-rule:evenodd;clip-rule:evenodd;fill:#633001;}
	.st1{fill:#FEDC90;}
	.st2{fill-rule:evenodd;clip-rule:evenodd;fill:#D1884F;}
	.st3{fill:#633001;}
</style>
<path d="M32.5,21.3c-0.4,0-0.6-0.1-0.8-0.2c-0.1-0.2-0.2-0.4-0.2-0.7V9.2c0-0.3,0.1-0.6,0.2-0.7c0.2-0.2,0.4-0.3,0.8-0.3h4.7
	c1.8,0,3.1,0.4,4,1.1c0.8,0.8,1.3,1.9,1.3,3.4s-0.4,2.6-1.3,3.4c-0.8,0.7-2.2,1.1-4,1.1h-1.8v3.1c0,0.3-0.1,0.6-0.2,0.7
	c-0.2,0.2-0.4,0.2-0.8,0.2h-1.9V21.3z M36.9,14.4c0.5,0,0.9-0.1,1.2-0.4c0.3-0.3,0.4-0.7,0.4-1.3s-0.1-1-0.4-1.3
	c-0.3-0.3-0.7-0.4-1.2-0.4h-1.5v3.4H36.9z"/>
<path d="M47,21.6c-1.2,0-2.2-0.4-2.9-1.2c-0.7-0.8-1.1-1.9-1.1-3.3c0-1.1,0.2-2,0.7-2.8s1.2-1.4,2.1-1.9c0.9-0.4,2-0.7,3.1-0.7
	c1,0,1.8,0.1,2.6,0.3s1.4,0.5,2.1,0.9v7.7c0,0.2,0,0.4-0.1,0.5s-0.3,0.1-0.5,0.1h-2c-0.1,0-0.3,0-0.3-0.1c-0.1-0.1-0.1-0.1-0.2-0.2
	l-0.3-0.6c-0.4,0.4-0.8,0.7-1.3,0.9C48.4,21.5,47.7,21.6,47,21.6z M48.4,19c0.5,0,0.9-0.1,1.2-0.4c0.3-0.2,0.4-0.6,0.4-1v-3
	c-0.2-0.1-0.6-0.2-0.9-0.2c-0.7,0-1.2,0.2-1.6,0.7c-0.4,0.5-0.6,1.1-0.6,2C46.9,18.3,47.4,19,48.4,19z"/>
<path d="M56.3,21.3c-0.4,0-0.6-0.1-0.8-0.2c-0.2-0.2-0.2-0.4-0.2-0.7v-7.8c0-0.2,0-0.4,0.1-0.5s0.3-0.1,0.5-0.1h2
	c0.2,0,0.3,0,0.3,0.1c0.1,0,0.1,0.1,0.2,0.2l0.1,0.6c0.4-0.4,0.8-0.6,1.4-0.8s1.2-0.3,2-0.3c1,0,1.9,0.3,2.5,0.9
	c0.6,0.6,1,1.4,1,2.6v5.1c0,0.3-0.1,0.6-0.2,0.7c-0.1,0.2-0.4,0.2-0.8,0.2h-1.9c-0.4,0-0.6-0.1-0.8-0.2c-0.2-0.2-0.2-0.4-0.2-0.7
	v-4.9c0-0.4-0.1-0.7-0.3-0.8c-0.2-0.2-0.4-0.3-0.8-0.3s-0.7,0.1-0.9,0.3c-0.2,0.2-0.3,0.5-0.3,0.8v4.8c0,0.3-0.1,0.6-0.2,0.7
	c-0.1,0.2-0.4,0.2-0.8,0.2L56.3,21.3L56.3,21.3z"/>
<path d="M72.2,21.6c-1.8,0-3.2-0.4-4.2-1.3c-1-0.8-1.5-2-1.5-3.6c0-1,0.2-1.8,0.7-2.6c0.4-0.7,1.1-1.3,1.9-1.7
	c0.9-0.4,1.9-0.6,3-0.6c0.9,0,1.6,0.1,2.2,0.3s1.2,0.4,1.6,0.8c0.1,0.1,0.2,0.2,0.2,0.3s-0.1,0.2-0.2,0.4L75.1,15
	c-0.1,0.2-0.2,0.3-0.3,0.3c-0.1,0-0.2-0.1-0.4-0.2c-0.3-0.2-0.7-0.4-1-0.5s-0.7-0.2-1.1-0.2c-0.6,0-1.2,0.2-1.6,0.6
	c-0.4,0.4-0.6,1-0.6,1.7c0,0.7,0.2,1.3,0.6,1.7s0.9,0.6,1.6,0.6c0.4,0,0.8-0.1,1.1-0.2c0.3-0.1,0.7-0.3,1-0.5
	c0.2-0.1,0.3-0.2,0.4-0.2s0.2,0.1,0.3,0.3l0.9,1.5c0.1,0.1,0.1,0.2,0.1,0.3c0,0.1-0.1,0.2-0.2,0.3c-0.5,0.3-1.1,0.6-1.8,0.8
	C73.8,21.5,73.1,21.6,72.2,21.6z"/>
<path d="M81.3,21.6c-1.2,0-2.2-0.4-2.9-1.2c-0.7-0.8-1.1-1.9-1.1-3.3c0-1.1,0.2-2,0.7-2.8s1.2-1.4,2.1-1.9c0.9-0.4,2-0.7,3.1-0.7
	c1,0,1.8,0.1,2.6,0.3c0.8,0.2,1.4,0.5,2.1,0.9v7.7c0,0.2,0,0.4-0.1,0.5s-0.3,0.1-0.5,0.1h-2c-0.1,0-0.3,0-0.3-0.1
	c-0.1-0.1-0.1-0.1-0.2-0.2l-0.3-0.6c-0.4,0.4-0.8,0.7-1.3,0.9C82.7,21.5,82.1,21.6,81.3,21.6z M82.8,19c0.5,0,0.9-0.1,1.2-0.4
	c0.3-0.2,0.4-0.6,0.4-1v-3c-0.2-0.1-0.6-0.2-0.9-0.2c-0.7,0-1.2,0.2-1.6,0.7s-0.6,1.1-0.6,2C81.2,18.3,81.7,19,82.8,19z"/>
<path d="M100.1,20.6c0.1,0.1,0.1,0.2,0.1,0.3c0,0.1,0,0.2-0.1,0.3c-0.1,0.1-0.2,0.1-0.3,0.1h-3c-0.2,0-0.3,0-0.4,0s-0.2-0.1-0.3-0.2
	l-2.6-3.6v2.8c0,0.3-0.1,0.6-0.2,0.7c-0.2,0.2-0.4,0.2-0.8,0.2h-1.9c-0.4,0-0.6-0.1-0.8-0.2c-0.1-0.2-0.2-0.4-0.2-0.7V9.2
	c0-0.3,0.1-0.6,0.2-0.7c0.2-0.2,0.4-0.3,0.8-0.3h1.9c0.4,0,0.6,0.1,0.8,0.3c0.2,0.2,0.2,0.4,0.2,0.7v6.4l2.5-3.3
	c0.1-0.1,0.2-0.2,0.3-0.2c0.1,0,0.2-0.1,0.4-0.1h3c0.1,0,0.2,0,0.3,0.1c0.1,0.1,0.1,0.2,0.1,0.3s0,0.2-0.1,0.3l-3.3,3.8L100.1,20.6z
	"/>
<path d="M106.3,21.6c-1.1,0-2-0.2-2.9-0.5c-0.8-0.4-1.5-0.9-2-1.6c-0.5-0.7-0.7-1.6-0.7-2.6c0-1.6,0.5-2.9,1.4-3.7
	c0.9-0.9,2.3-1.3,4-1.3s3,0.4,3.8,1.3c0.9,0.8,1.3,2,1.3,3.5c0,0.6-0.3,1-0.8,1h-6c0,0.6,0.2,1,0.6,1.3s1.1,0.4,1.9,0.4
	c0.5,0,1,0,1.3-0.1c0.4-0.1,0.7-0.3,1.1-0.4c0.2-0.1,0.3-0.1,0.3-0.1c0.1,0,0.2,0.1,0.3,0.2l0.7,1.2c0.1,0.1,0.1,0.2,0.1,0.3
	c0,0.1-0.1,0.2-0.2,0.3c-0.5,0.3-1.1,0.6-1.8,0.8C107.9,21.5,107.2,21.6,106.3,21.6z M107.8,15.6c0-0.5-0.1-0.9-0.4-1.1
	c-0.3-0.3-0.7-0.4-1.3-0.4c-0.6,0-1,0.1-1.3,0.4c-0.3,0.3-0.4,0.6-0.4,1.1H107.8z"/>
<path d="M117.9,21.6c-1.1,0-2.1-0.1-3.1-0.3c-1-0.2-1.7-0.6-2.3-1c-0.2-0.1-0.3-0.3-0.3-0.4s0-0.2,0.1-0.3l0.9-1.5
	c0.1-0.2,0.2-0.2,0.3-0.2c0.1,0,0.2,0,0.3,0.1c0.5,0.3,1,0.5,1.6,0.7s1.2,0.3,1.8,0.3s1-0.1,1.3-0.3s0.4-0.5,0.4-0.9
	s-0.2-0.7-0.5-0.9s-0.9-0.5-1.8-0.8c-1.3-0.5-2.3-1-3-1.6s-1.1-1.5-1.1-2.5c0-1.3,0.5-2.2,1.4-2.9s2.1-1,3.6-1c1.1,0,2,0.1,2.7,0.3
	c0.8,0.2,1.4,0.5,1.9,0.8c0.2,0.2,0.3,0.3,0.3,0.5c0,0.1,0,0.2-0.1,0.3l-0.9,1.5c-0.1,0.2-0.2,0.2-0.3,0.2s-0.2,0-0.3-0.1
	c-0.7-0.5-1.6-0.7-2.7-0.7c-0.6,0-1,0.1-1.3,0.3s-0.4,0.5-0.4,0.9c0,0.3,0.1,0.5,0.2,0.7c0.2,0.2,0.4,0.3,0.6,0.5
	c0.3,0.1,0.7,0.3,1.2,0.5l0.4,0.1c0.9,0.4,1.7,0.7,2.2,1.1c0.6,0.3,1,0.8,1.3,1.3c0.3,0.5,0.4,1.1,0.4,1.8c0,1.1-0.4,2.1-1.3,2.7
	C120.8,21.2,119.5,21.6,117.9,21.6z"/>
<path d="M127,21.3c-0.2,0-0.3,0-0.4-0.1c-0.1-0.1-0.2-0.2-0.2-0.4l-2.5-8.3c0-0.1,0-0.1,0-0.2c0-0.2,0.1-0.3,0.4-0.3h2.5
	c0.2,0,0.3,0,0.4,0.1c0.1,0.1,0.1,0.1,0.2,0.3l1,4.4l1.3-3.5c0.1-0.2,0.1-0.3,0.2-0.3c0.1-0.1,0.2-0.1,0.4-0.1h1.2
	c0.2,0,0.3,0,0.4,0.1c0.1,0.1,0.1,0.2,0.2,0.3l1.3,3.5l1.1-4.4c0-0.1,0.1-0.2,0.2-0.3c0.1-0.1,0.2-0.1,0.3-0.1h2.6
	c0.3,0,0.4,0.1,0.4,0.3c0,0,0,0.1,0,0.2l-2.5,8.3c-0.1,0.2-0.1,0.3-0.2,0.4c-0.1,0.1-0.2,0.1-0.4,0.1H133c-0.2,0-0.3,0-0.4-0.1
	c-0.1-0.1-0.2-0.2-0.2-0.4l-1.3-3.5l-1.3,3.5c-0.1,0.2-0.1,0.3-0.2,0.4c-0.1,0.1-0.2,0.1-0.4,0.1H127z"/>
<path d="M142.6,21.6c-1.2,0-2.2-0.4-2.9-1.2c-0.7-0.8-1.1-1.9-1.1-3.3c0-1.1,0.2-2,0.7-2.8s1.2-1.4,2.1-1.9c0.9-0.4,2-0.7,3.1-0.7
	c1,0,1.8,0.1,2.6,0.3s1.4,0.5,2.1,0.9v7.7c0,0.2,0,0.4-0.1,0.5s-0.3,0.1-0.5,0.1h-2c-0.1,0-0.2,0-0.3-0.1s-0.1-0.1-0.2-0.2l-0.3-0.6
	c-0.4,0.4-0.8,0.7-1.3,0.9C144,21.5,143.4,21.6,142.6,21.6z M144.1,19c0.5,0,0.9-0.1,1.2-0.4c0.3-0.2,0.4-0.6,0.4-1v-3
	c-0.2-0.1-0.6-0.2-0.9-0.2c-0.7,0-1.2,0.2-1.6,0.7c-0.4,0.5-0.6,1.1-0.6,2C142.5,18.3,143,19,144.1,19z"/>
<path d="M151.9,25.2c-0.4,0-0.6-0.1-0.8-0.2c-0.1-0.2-0.2-0.4-0.2-0.7v-11c0.6-0.4,1.3-0.8,2.2-1c0.9-0.3,1.8-0.4,2.7-0.4
	c3.9,0,5.8,1.6,5.8,4.9c0,1.5-0.4,2.7-1.2,3.6c-0.8,0.9-2,1.3-3.5,1.3c-0.4,0-0.8-0.1-1.2-0.2s-0.7-0.2-1-0.4v3.2
	c0,0.3-0.1,0.6-0.2,0.7c-0.2,0.2-0.4,0.2-0.8,0.2H151.9z M156.1,19c0.6,0,1-0.2,1.2-0.6c0.3-0.4,0.4-1,0.4-1.7
	c0-0.8-0.2-1.4-0.5-1.8c-0.3-0.3-0.8-0.5-1.5-0.5c-0.4,0-0.8,0.1-1,0.2v3c0,0.4,0.1,0.8,0.4,1C155.3,18.9,155.7,19,156.1,19z"/>
<path class="st0" d="M6,6C5.6,4,7.2,2.1,9.2,2.1c1.8,0,3.3,1.5,3.3,3.3v4c0.5,0,0.9,0,1.4,0c0.4,0,0.9,0,1.3,0v-4
	c0-1.8,1.5-3.3,3.3-3.3c2,0,3.6,1.9,3.2,3.9l-0.9,4.7c3,1.3,5.3,3.6,5.3,6.5v1.7c0,2.4-1.6,4.4-3.8,5.7c-2.2,1.4-5.2,2.2-8.5,2.2
	S7.5,26,5.3,24.6c-2.2-1.3-3.8-3.3-3.8-5.7v-1.7c0-2.9,2.3-5.2,5.3-6.5L6,6z M19.7,11.4l1-5.5c0.3-1.4-0.8-2.7-2.2-2.7
	c-1.3,0-2.3,1-2.3,2.3v5.1c-0.3,0-0.7-0.1-1-0.1c-0.4,0-0.9,0-1.3,0c-0.5,0-0.9,0-1.4,0.1c-0.3,0-0.7,0.1-1,0.1V5.6
	c0-1.3-1-2.3-2.3-2.3C7.8,3.3,6.7,4.6,7,6l1,5.6c-3.2,1.2-5.4,3.4-5.4,5.9v1.7c0,3.8,5,6.9,11.2,6.9S25,23,25,19.2v-1.7
	C25.1,14.8,22.9,12.6,19.7,11.4z"/>
<path class="st1" d="M25.1,19c0,3.8-5,6.9-11.2,6.9S2.7,22.8,2.7,19v-1.7h22.5L25.1,19L25.1,19z"/>
<path class="st2" d="M7,5.8C6.7,4.4,7.8,3.1,9.2,3.1c1.3,0,2.3,1,2.3,2.3v5.2c0.8-0.1,1.6-0.2,2.4-0.2s1.6,0.1,2.3,0.1V5.4
	c0-1.3,1-2.3,2.3-2.3c1.4,0,2.5,1.3,2.2,2.7l-1,5.5c3.3,1.2,5.5,3.4,5.5,5.9c0,3.8-5,6.9-11.2,6.9S2.8,21,2.8,17.2
	c0-2.5,2.2-4.7,5.4-5.9L7,5.8z"/>
<path class="st3" d="M10.8,16.8c0,1-0.6,1.9-1.2,1.9s-1.2-0.8-1.2-1.9c0-1,0.6-1.9,1.2-1.9S10.8,15.7,10.8,16.8z"/>
<path class="st3" d="M19.4,16.8c0,1-0.6,1.9-1.2,1.9c-0.7,0-1.2-0.8-1.2-1.9c0-1,0.6-1.9,1.2-1.9S19.4,15.7,19.4,16.8z"/>
</svg>
