<?xml version="1.0" encoding="utf-8"?>
<!-- Generator: Adobe Illustrator 25.2.3, SVG Export Plug-In . SVG Version: 6.00 Build 0)  -->
<svg version="1.1" xmlns="http://www.w3.org/2000/svg" xmlns:xlink="http://www.w3.org/1999/xlink" x="0px" y="0px"
	 viewBox="0 0 200 71.2" style="enable-background:new 0 0 200 71.2;" xml:space="preserve">
<style type="text/css">
	.st0{display:none;}
	.st1{display:inline;}
	.st2{fill:#FFFFFF;}
	.st3{fill-rule:evenodd;clip-rule:evenodd;fill:#623312;}
	.st4{fill:#FDDC90;}
	.st5{fill-rule:evenodd;clip-rule:evenodd;fill:#D1884E;}
	.st6{fill:#623312;}
	.st7{fill:#F3BA2C;}
	.st8{fill:#4D4D4D;}
	.st9{fill:#010101;}
	.st10{fill:#818181;}
</style>
<g id="Layer_1" class="st0">
	<g id="Layer_1_1_">
		<g class="st1">
			<path class="st2" d="M43.1,48.8c-0.5,0-0.7-0.1-0.9-0.2c-0.1-0.2-0.2-0.5-0.2-0.8v-13c0-0.3,0.1-0.7,0.2-0.8
				c0.2-0.2,0.5-0.3,0.9-0.3h5.5c2.1,0,3.6,0.5,4.6,1.3c0.9,0.9,1.5,2.2,1.5,3.9s-0.5,3-1.5,3.9c-0.9,0.8-2.6,1.3-4.6,1.3h-2.1v3.6
				c0,0.3-0.1,0.7-0.2,0.8c-0.2,0.2-0.5,0.2-0.9,0.2h-2.2L43.1,48.8L43.1,48.8z M48.2,40.8c0.6,0,1-0.1,1.4-0.5
				c0.3-0.3,0.5-0.8,0.5-1.5s-0.1-1.2-0.5-1.5c-0.3-0.3-0.8-0.5-1.4-0.5h-1.7v3.9h1.7V40.8z"/>
			<path class="st2" d="M59.9,49.1c-1.4,0-2.6-0.5-3.4-1.4c-0.8-0.9-1.3-2.2-1.3-3.8c0-1.3,0.2-2.3,0.8-3.2c0.6-0.9,1.4-1.6,2.4-2.2
				c1-0.5,2.3-0.8,3.6-0.8c1.2,0,2.1,0.1,3,0.3c0.9,0.2,1.6,0.6,2.4,1v8.9c0,0.2,0,0.5-0.1,0.6c-0.1,0.1-0.3,0.1-0.6,0.1h-2.3
				c-0.1,0-0.3,0-0.3-0.1c-0.1-0.1-0.1-0.1-0.2-0.2l-0.3-0.7c-0.5,0.5-0.9,0.8-1.5,1C61.5,49,60.7,49.1,59.9,49.1z M61.5,46.1
				c0.6,0,1-0.1,1.4-0.5c0.3-0.2,0.5-0.7,0.5-1.2v-3.5c-0.2-0.1-0.7-0.2-1-0.2c-0.8,0-1.4,0.2-1.9,0.8s-0.7,1.3-0.7,2.3
				C59.8,45.3,60.4,46.1,61.5,46.1z"/>
			<path class="st2" d="M70.7,48.8c-0.5,0-0.7-0.1-0.9-0.2c-0.2-0.2-0.2-0.5-0.2-0.8v-9.1c0-0.2,0-0.5,0.1-0.6
				C69.8,38,70,38,70.3,38h2.3c0.2,0,0.3,0,0.3,0.1c0.1,0,0.1,0.1,0.2,0.2l0.1,0.7c0.5-0.5,0.9-0.7,1.6-0.9c0.7-0.2,1.4-0.3,2.3-0.3
				c1.2,0,2.2,0.3,2.9,1c0.7,0.7,1.2,1.6,1.2,3v5.9c0,0.3-0.1,0.7-0.2,0.8c-0.1,0.2-0.5,0.2-0.9,0.2h-2.2c-0.5,0-0.7-0.1-0.9-0.2
				c-0.2-0.2-0.2-0.5-0.2-0.8v-5.6c0-0.5-0.1-0.8-0.3-0.9c-0.2-0.2-0.5-0.3-0.9-0.3s-0.8,0.1-1,0.3c-0.2,0.2-0.3,0.6-0.3,0.9v5.6
				c0,0.3-0.1,0.7-0.2,0.8c-0.1,0.2-0.5,0.2-0.9,0.2L70.7,48.8L70.7,48.8z"/>
			<path class="st2" d="M89.1,49.1c-2.1,0-3.7-0.5-4.9-1.5c-1.2-0.9-1.7-2.3-1.7-4.2c0-1.2,0.2-2.1,0.8-3c0.5-0.8,1.3-1.5,2.2-2
				c1-0.5,2.2-0.7,3.5-0.7c1,0,1.9,0.1,2.6,0.3s1.4,0.5,1.9,0.9c0.1,0.1,0.2,0.2,0.2,0.3c0,0.1-0.1,0.2-0.2,0.5l-0.9,1.6
				c-0.1,0.2-0.2,0.3-0.3,0.3c-0.1,0-0.2-0.1-0.5-0.2c-0.3-0.2-0.8-0.5-1.2-0.6c-0.3-0.1-0.8-0.2-1.3-0.2c-0.7,0-1.4,0.2-1.9,0.7
				s-0.7,1.2-0.7,2s0.2,1.5,0.7,2s1,0.7,1.9,0.7c0.5,0,0.9-0.1,1.3-0.2c0.3-0.1,0.8-0.3,1.2-0.6c0.2-0.1,0.3-0.2,0.5-0.2
				c0.1,0,0.2,0.1,0.3,0.3l1,1.7c0.1,0.1,0.1,0.2,0.1,0.3s-0.1,0.2-0.2,0.3c-0.6,0.3-1.3,0.7-2.1,0.9C91,49,90.2,49.1,89.1,49.1z"/>
			<path class="st2" d="M99.7,49.1c-1.4,0-2.6-0.5-3.4-1.4c-0.8-0.9-1.3-2.2-1.3-3.8c0-1.3,0.2-2.3,0.8-3.2c0.6-0.9,1.4-1.6,2.4-2.2
				c1-0.5,2.3-0.8,3.6-0.8c1.2,0,2.1,0.1,3,0.3c0.9,0.2,1.6,0.6,2.4,1v8.9c0,0.2,0,0.5-0.1,0.6c-0.1,0.1-0.3,0.1-0.6,0.1h-2.3
				c-0.1,0-0.3,0-0.3-0.1c-0.1-0.1-0.1-0.1-0.2-0.2l-0.3-0.7c-0.5,0.5-0.9,0.8-1.5,1C101.3,49,100.6,49.1,99.7,49.1z M101.5,46.1
				c0.6,0,1-0.1,1.4-0.5c0.3-0.2,0.5-0.7,0.5-1.2v-3.5c-0.2-0.1-0.7-0.2-1-0.2c-0.8,0-1.4,0.2-1.9,0.8s-0.7,1.3-0.7,2.3
				C99.6,45.3,100.2,46.1,101.5,46.1z"/>
			<path class="st2" d="M121.5,48c0.1,0.1,0.1,0.2,0.1,0.3c0,0.1,0,0.2-0.1,0.3c-0.1,0.1-0.2,0.1-0.3,0.1h-3.5c-0.2,0-0.3,0-0.5,0
				c-0.1,0-0.2-0.1-0.3-0.2l-3-4.2v3.2c0,0.3-0.1,0.7-0.2,0.8c-0.2,0.2-0.5,0.2-0.9,0.2h-2.2c-0.5,0-0.7-0.1-0.9-0.2
				c-0.1-0.2-0.2-0.5-0.2-0.8V34.7c0-0.3,0.1-0.7,0.2-0.8c0.2-0.2,0.5-0.3,0.9-0.3h2.2c0.5,0,0.7,0.1,0.9,0.3
				c0.2,0.2,0.2,0.5,0.2,0.8v7.4l2.9-3.8c0.1-0.1,0.2-0.2,0.3-0.2s0.2-0.1,0.5-0.1h3.5c0.1,0,0.2,0,0.3,0.1c0.1,0.1,0.1,0.2,0.1,0.3
				s0,0.2-0.1,0.3l-3.8,4.4L121.5,48z"/>
			<path class="st2" d="M128.7,49.1c-1.3,0-2.3-0.2-3.4-0.6c-0.9-0.5-1.7-1-2.3-1.9c-0.6-0.9-0.8-1.9-0.8-3c0-1.9,0.6-3.4,1.6-4.3
				c1-1,2.7-1.5,4.6-1.5c2,0,3.5,0.5,4.4,1.5c1,0.9,1.5,2.3,1.5,4.1c0,0.7-0.3,1.2-0.9,1.2h-7c0,0.7,0.2,1.2,0.7,1.5
				s1.3,0.5,2.2,0.5c0.6,0,1.2,0,1.5-0.1c0.5-0.1,0.8-0.3,1.3-0.5c0.2-0.1,0.3-0.1,0.3-0.1c0.1,0,0.2,0.1,0.3,0.2l0.8,1.4
				c0.1,0.1,0.1,0.2,0.1,0.3s-0.1,0.2-0.2,0.3c-0.6,0.3-1.3,0.7-2.1,0.9C130.6,49,129.8,49.1,128.7,49.1z M130.5,42.2
				c0-0.6-0.1-1-0.5-1.3c-0.3-0.3-0.8-0.5-1.5-0.5s-1.2,0.1-1.5,0.5c-0.3,0.3-0.5,0.7-0.5,1.3H130.5z"/>
			<path class="st2" d="M142.2,49.1c-1.3,0-2.4-0.1-3.6-0.3c-1.2-0.2-2-0.7-2.7-1.2c-0.2-0.1-0.3-0.3-0.3-0.5s0-0.2,0.1-0.3l1-1.7
				c0.1-0.2,0.2-0.2,0.3-0.2s0.2,0,0.3,0.1c0.6,0.3,1.2,0.6,1.9,0.8c0.7,0.2,1.4,0.3,2.1,0.3c0.7,0,1.2-0.1,1.5-0.3s0.5-0.6,0.5-1
				c0-0.5-0.2-0.8-0.6-1c-0.3-0.2-1-0.6-2.1-0.9c-1.5-0.6-2.7-1.2-3.5-1.9s-1.3-1.7-1.3-2.9c0-1.5,0.6-2.6,1.6-3.4s2.4-1.2,4.2-1.2
				c1.3,0,2.3,0.1,3.1,0.3c0.9,0.2,1.6,0.6,2.2,0.9c0.2,0.2,0.3,0.3,0.3,0.6c0,0.1,0,0.2-0.1,0.3l-1,1.7c-0.1,0.2-0.2,0.2-0.3,0.2
				s-0.2,0-0.3-0.1c-0.8-0.6-1.9-0.8-3.1-0.8c-0.7,0-1.2,0.1-1.5,0.3c-0.3,0.2-0.5,0.6-0.5,1c0,0.3,0.1,0.6,0.2,0.8
				c0.2,0.2,0.5,0.3,0.7,0.6c0.3,0.1,0.8,0.3,1.4,0.6l0.5,0.1c1,0.5,2,0.8,2.6,1.3c0.7,0.3,1.2,0.9,1.5,1.5c0.3,0.6,0.5,1.3,0.5,2.1
				c0,1.3-0.5,2.4-1.5,3.1C145.6,48.7,144,49.1,142.2,49.1z"/>
			<path class="st2" d="M152.7,48.8c-0.2,0-0.3,0-0.5-0.1c-0.1-0.1-0.2-0.2-0.2-0.5l-2.9-9.6c0-0.1,0-0.1,0-0.2
				c0-0.2,0.1-0.3,0.5-0.3h2.9c0.2,0,0.3,0,0.5,0.1c0.1,0.1,0.1,0.1,0.2,0.3l1.2,5.1l1.5-4.1c0.1-0.2,0.1-0.3,0.2-0.3
				c0.1-0.1,0.2-0.1,0.5-0.1h1.4c0.2,0,0.3,0,0.5,0.1c0.1,0.1,0.1,0.2,0.2,0.3l1.5,4.1l1.3-5.1c0-0.1,0.1-0.2,0.2-0.3
				c0.1-0.1,0.2-0.1,0.3-0.1h3c0.3,0,0.5,0.1,0.5,0.3c0,0,0,0.1,0,0.2l-2.9,9.6c-0.1,0.2-0.1,0.3-0.2,0.5s-0.2,0.1-0.5,0.1h-2.2
				c-0.2,0-0.3,0-0.5-0.1c-0.1-0.1-0.2-0.2-0.2-0.5l-1.5-4.1l-1.5,4.1c-0.1,0.2-0.1,0.3-0.2,0.5c-0.1,0.1-0.2,0.1-0.5,0.1H152.7z"/>
			<path class="st2" d="M170.9,49.1c-1.4,0-2.6-0.5-3.4-1.4c-0.8-0.9-1.3-2.2-1.3-3.8c0-1.3,0.2-2.3,0.8-3.2
				c0.6-0.9,1.4-1.6,2.4-2.2c1-0.5,2.3-0.8,3.6-0.8c1.2,0,2.1,0.1,3,0.3c0.9,0.2,1.6,0.6,2.4,1v8.9c0,0.2,0,0.5-0.1,0.6
				c-0.1,0.1-0.3,0.1-0.6,0.1h-2.3c-0.1,0-0.2,0-0.3-0.1c-0.1-0.1-0.1-0.1-0.2-0.2l-0.3-0.7c-0.5,0.5-0.9,0.8-1.5,1
				C172.5,49,171.8,49.1,170.9,49.1z M172.6,46.1c0.6,0,1-0.1,1.4-0.5c0.3-0.2,0.5-0.7,0.5-1.2v-3.5c-0.2-0.1-0.7-0.2-1-0.2
				c-0.8,0-1.4,0.2-1.9,0.8s-0.7,1.3-0.7,2.3C170.7,45.3,171.3,46.1,172.6,46.1z"/>
			<path class="st2" d="M181.6,53.3c-0.5,0-0.7-0.1-0.9-0.2c-0.1-0.2-0.2-0.5-0.2-0.8V39.5c0.7-0.5,1.5-0.9,2.6-1.2
				c1-0.3,2.1-0.5,3.1-0.5c4.5,0,6.7,1.9,6.7,5.7c0,1.7-0.5,3.1-1.4,4.2c-0.9,1-2.3,1.5-4.1,1.5c-0.5,0-0.9-0.1-1.4-0.2
				c-0.5-0.1-0.8-0.2-1.2-0.5v3.7c0,0.3-0.1,0.7-0.2,0.8c-0.2,0.2-0.5,0.2-0.9,0.2h-2.1V53.3z M186.5,46.1c0.7,0,1.2-0.2,1.4-0.7
				c0.3-0.5,0.5-1.2,0.5-2c0-0.9-0.2-1.6-0.6-2.1c-0.3-0.3-0.9-0.6-1.7-0.6c-0.5,0-0.9,0.1-1.2,0.2v3.5c0,0.5,0.1,0.9,0.5,1.2
				C185.6,46,186.1,46.1,186.5,46.1z"/>
			<path class="st3" d="M12.3,31c-0.5-2.3,1.4-4.5,3.7-4.5c2.1,0,3.8,1.7,3.8,3.8v4.6c0.6,0,1,0,1.6,0c0.5,0,1,0,1.5,0v-4.6
				c0-2.1,1.7-3.8,3.8-3.8c2.3,0,4.2,2.2,3.7,4.5l-1,5.5c3.5,1.5,6.2,4.2,6.2,7.5v2c0,2.8-1.9,5.1-4.4,6.6c-2.6,1.6-6,2.6-9.9,2.6
				s-7.3-0.9-9.9-2.6C9,51.1,7.1,48.8,7.1,46v-2c0-3.4,2.7-6,6.2-7.5L12.3,31z M28.2,37.3l1.2-6.4c0.3-1.6-0.9-3.1-2.6-3.1
				c-1.5,0-2.7,1.2-2.7,2.7v5.9c-0.3,0-0.8-0.1-1.2-0.1c-0.5,0-1,0-1.5,0c-0.6,0-1,0-1.6,0.1c-0.3,0-0.8,0.1-1.2,0.1v-5.9
				c0-1.5-1.2-2.7-2.7-2.7c-1.6,0-2.9,1.5-2.6,3.1l1.2,6.5c-3.7,1.4-6.3,3.9-6.3,6.8v2c0,4.4,5.8,8,13,8s13-3.6,13-8v-2
				C34.5,41.2,31.9,38.7,28.2,37.3z"/>
			<path class="st4" d="M34.5,46.1c0,4.4-5.8,8-13,8s-13-3.6-13-8v-2h26.1L34.5,46.1L34.5,46.1z"/>
			<path class="st5" d="M13.5,30.8c-0.3-1.6,0.9-3.1,2.6-3.1c1.5,0,2.7,1.2,2.7,2.7v6c0.9-0.1,1.9-0.2,2.8-0.2s1.9,0.1,2.7,0.1v-5.9
				c0-1.5,1.2-2.7,2.7-2.7c1.6,0,2.9,1.5,2.6,3.1l-1.2,6.4c3.8,1.4,6.4,3.9,6.4,6.8c0,4.4-5.8,8-13,8s-13-3.6-13-8
				c0-2.9,2.6-5.5,6.3-6.8L13.5,30.8z"/>
			<path class="st6" d="M17.9,43.6c0,1.2-0.7,2.2-1.4,2.2c-0.7,0-1.4-0.9-1.4-2.2c0-1.2,0.7-2.2,1.4-2.2
				C17.2,41.4,17.9,42.3,17.9,43.6z"/>
			<path class="st6" d="M27.9,43.6c0,1.2-0.7,2.2-1.4,2.2c-0.8,0-1.4-0.9-1.4-2.2c0-1.2,0.7-2.2,1.4-2.2
				C27.2,41.4,27.9,42.3,27.9,43.6z"/>
		</g>
	</g>
	<desc>Created with Sketch.</desc>
	<g class="st1">
		<path id="Shape_9_" class="st7" d="M58.7,16.7h8.6c2.1,0,3.7,0.7,4.9,1.6c1,0.8,1.5,2.1,1.5,3.3l0,0c0,0.5,0,1-0.2,1.5
			c-0.3,0.7-0.7,1.5-1.3,2.1c-0.3,0.3-0.7,0.5-0.8,0.7c1,0.3,2,0.8,2.6,1.6c0.7,0.7,0.8,1.6,0.8,2.9l0,0c0,0.7-0.2,1.6-0.5,2.1
			c-0.3,0.7-0.8,1.1-1.5,1.6c-0.7,0.5-1.5,0.7-2.1,1c-0.8,0.3-2,0.3-2.9,0.3h-9L58.7,16.7L58.7,16.7z M66.5,24.3
			c0.7,0,1.5-0.2,2.1-0.5c0.7-0.3,0.8-0.8,0.8-1.5l0,0c0-0.7-0.3-1.1-0.7-1.5c-0.7-0.5-1.3-0.7-2.1-0.5h-4.1v3.9H66.5L66.5,24.3
			L66.5,24.3z M67.5,31.8c0.7,0,1.5-0.2,2.1-0.5c0.7-0.3,0.8-0.8,0.7-1.6l0,0c0-0.7-0.3-1.1-0.7-1.5c-0.5-0.3-1.3-0.7-2.3-0.7h-4.9
			v4.1h5V31.8z"/>
		<polygon id="Path_23_" class="st7" points="79.9,16.7 84,16.7 84,35.4 79.9,35.4 		"/>
		<polygon id="Path_22_" class="st7" points="90.1,16.7 94.1,16.7 102.7,28.2 102.7,16.7 106.8,16.7 106.8,35.4 103.3,35.4 
			94.1,23.5 94.1,35.4 90.1,35.4 		"/>
		<path id="Shape_8_" class="st7" d="M119.1,16.7h3.7l8,18.7h-4.2l-1.8-4.2H117l-1.8,4.2h-4.1L119.1,16.7z M123.5,27.8l-2.4-6.2
			l-2.4,6.2H123.5z"/>
		<polygon id="Path_21_" class="st7" points="135.4,16.7 139.2,16.7 148,28.2 148,16.7 152,16.7 152,35.4 148.5,35.4 139.5,23.5 
			139.5,35.4 135.4,35.4 		"/>
		<path id="Path_20_" class="st7" d="M166.9,35.7c-1.3,0-2.6-0.3-3.7-0.7c-2.3-1-4.1-2.8-5-5c-0.5-1.1-0.7-2.4-0.7-3.7l0,0
			c0-2.4,1-4.9,2.8-6.8c0.8-0.8,2-1.6,3.1-2.1c1.3-0.7,2.6-0.7,3.9-0.7c0.7,0,1.6,0,2.3,0.2c0.7,0.2,1.3,0.3,2,0.7
			c0.7,0.3,1.1,0.7,1.6,0.8c0.5,0.3,1,0.7,1.5,1.1l-2.4,3.1c-0.7-0.7-1.5-1.1-2.1-1.6c-0.7-0.5-1.6-0.7-2.4-0.7
			c-0.7,0-1.5,0.2-2.1,0.5c-0.7,0.3-1.3,0.7-1.8,1.3c-0.5,0.7-0.8,1.1-1.1,2c-0.3,0.7-0.5,1.5-0.5,2.1l0,0c0,0.7,0.2,1.6,0.5,2.3
			c0.3,0.7,0.7,1.3,1.1,2c1,1.1,2.4,1.8,3.9,1.8c0.8,0,2-0.2,2.8-0.7c0.7-0.5,1.6-1,2.1-1.6l2.3,2.4c-0.5,0.5-1,1-1.5,1.5
			c-0.7,0.5-1.1,0.7-1.8,1c-0.7,0.3-1.3,0.7-2.1,0.7C168.5,35.7,167.7,35.7,166.9,35.7L166.9,35.7z"/>
		<polygon id="Path_19_" class="st7" points="179.4,16.7 193.4,16.7 193.4,20.4 183.3,20.4 183.3,24.2 192.3,24.2 192.3,27.8 
			183.3,27.8 183.3,31.8 193.6,31.8 193.6,35.4 179.4,35.4 		"/>
		<path id="Path_18_" class="st7" d="M63.9,53.8c-1,0-2.1-0.2-2.9-0.7c-0.8-0.3-1.8-0.8-2.6-1.6l1.5-1.6c0.7,0.7,1.1,0.8,2,1.3
			c0.7,0.3,1.5,0.5,2.1,0.5s1.1-0.2,1.8-0.5c0.5-0.3,0.7-0.7,0.7-1.1l0,0c0-0.2,0-0.5-0.2-0.7c-0.2-0.2-0.3-0.5-0.5-0.7
			c-0.3-0.2-0.7-0.3-0.8-0.5c-0.5-0.2-1-0.3-1.5-0.5c-0.7-0.2-1.3-0.3-2-0.7c-0.5-0.2-1-0.5-1.3-0.7c-0.3-0.3-0.7-0.7-0.8-1
			C59,44.9,59,44.4,59,43.9l0,0c0-0.7,0.2-1,0.3-1.6c0.2-0.5,0.7-0.8,0.8-1.1c0.5-0.3,0.8-0.7,1.5-0.7c0.7-0.2,1.1-0.3,1.8-0.3
			c0.8,0,1.8,0.2,2.6,0.5c0.7,0.3,1.5,0.7,2.1,1.1l-1.1,2c-0.7-0.5-1.1-0.7-1.8-1c-0.7-0.3-1.1-0.3-1.8-0.3c-0.7,0-1.1,0.2-1.6,0.5
			c-0.3,0.3-0.7,0.7-0.7,1.1l0,0c0,0.3,0,0.5,0.2,0.7c0.2,0.2,0.3,0.5,0.5,0.7c0.3,0.2,0.7,0.3,1,0.5c0.5,0.2,0.8,0.3,1.6,0.5
			c0.7,0.2,1.1,0.3,2,0.7c0.5,0.2,0.8,0.5,1.3,0.7c0.3,0.3,0.7,0.7,0.7,1c0.2,0.5,0.3,0.8,0.3,1.5l0,0c0,0.7-0.2,1.1-0.3,1.6
			c-0.3,0.5-0.7,0.8-1,1.3c-0.5,0.3-0.8,0.7-1.5,0.7C65.2,53.7,64.6,53.8,63.9,53.8z"/>
		<polygon id="Path_17_" class="st7" points="71.3,40.5 73.7,40.5 77.6,46.6 81.7,40.5 84.1,40.5 84.1,53.7 81.8,53.7 81.8,44.2 
			77.8,50.2 77.6,50.2 73.5,44.2 73.5,53.7 71.3,53.7 		"/>
		<path id="Shape_7_" class="st7" d="M92.1,40.3h2.1l5.7,13.2h-2.4l-1.3-3.3H90l-1.3,3.3h-2.3L92.1,40.3z M95.4,48.4l-2.3-5.2
			L91,48.4H95.4z"/>
		<path id="Shape_6_" class="st7" d="M102.2,40.5h5.9c0.7,0,1.5,0.2,2.1,0.3c0.7,0.2,1.1,0.7,1.6,1c0.3,0.3,0.7,0.7,0.8,1.3
			c0.2,0.5,0.3,1,0.3,1.6l0,0c0,0.5-0.2,1-0.3,1.5s-0.5,0.7-0.7,1.1c-0.3,0.3-0.7,0.7-1,0.8c-0.5,0.3-0.8,0.5-1.3,0.7l3.6,4.9h-2.8
			l-3.3-4.6h-2.9v4.6H102L102.2,40.5z M107.9,47c0.7,0,1.5-0.2,2-0.7c0.5-0.5,0.7-1,0.7-1.6l0,0c0-0.7-0.3-1.1-0.7-1.6
			c-0.7-0.5-1.3-0.7-2.1-0.7h-3.4V47H107.9z"/>
		<polygon id="Path_16_" class="st7" points="119,42.6 114.7,42.6 114.7,40.5 125.5,40.5 125.5,42.6 121.3,42.6 121.3,53.7 
			119,53.7 		"/>
		<path id="Path_15_" class="st7" d="M139.7,53.8c-0.8,0-1.8-0.2-2.6-0.7c-1.6-0.7-2.9-2-3.6-3.6c-0.3-0.8-0.7-1.8-0.5-2.6l0,0
			c0-0.8,0.2-1.8,0.5-2.6c0.7-1.6,2-2.9,3.6-3.6c0.8-0.3,1.8-0.7,2.8-0.7c0.7,0,1.1,0,1.6,0.2c0.5,0.2,0.8,0.3,1.3,0.5
			s0.7,0.5,1.1,0.7c0.3,0.3,0.7,0.7,1,0.8l-1.5,1.8c-0.5-0.5-1-0.8-1.6-1.1c-0.7-0.3-1.3-0.5-2.1-0.5c-0.7,0-1.1,0.2-1.8,0.3
			c-0.7,0.3-1,0.7-1.5,1c-0.5,0.5-0.7,0.8-0.8,1.5c-0.2,0.7-0.3,1.1-0.3,1.8l0,0c0,0.7,0.2,1.1,0.3,1.8c0.2,0.7,0.5,1,0.8,1.5
			c0.5,0.5,0.8,0.7,1.5,1c0.7,0.3,1.1,0.5,1.8,0.3c0.7,0,1.5-0.2,2.1-0.5c0.7-0.3,1.1-0.7,1.8-1.3l1.5,1.5c-0.3,0.3-0.7,0.7-1,1
			c-0.5,0.3-0.7,0.7-1.1,0.7c-0.5,0.2-0.8,0.5-1.5,0.5C140.8,53.8,140.2,53.8,139.7,53.8L139.7,53.8z"/>
		<polygon id="Path_14_" class="st7" points="147.3,40.5 149.6,40.5 149.6,45.8 155.8,45.8 155.8,40.5 158.1,40.5 158.1,53.7 
			155.8,53.7 155.8,48.1 149.6,48.1 149.6,53.7 147.3,53.7 		"/>
		<path id="Shape_5_" class="st7" d="M166.2,40.3h2.1l5.7,13.2h-2.4l-1.3-3.3h-6.2l-1.3,3.3h-2.3L166.2,40.3z M169.3,48.4l-2.1-5.2
			l-2.1,5.2H169.3z"/>
		<polygon id="Path_13_" class="st7" points="176.3,40.5 178.8,40.5 178.8,53.7 176.3,53.7 		"/>
		<polygon id="Path_12_" class="st7" points="182.2,40.5 184.3,40.5 191.3,49.6 191.3,40.5 193.6,40.5 193.6,53.7 191.6,53.7 
			184.5,44.4 184.5,53.7 182.2,53.7 		"/>
		<path id="binancedex_1_" class="st7" d="M33,52.8v5.7l-4.9,2.9l-4.9-2.9v-5.7l4.9,2.9L33,52.8z M6.4,33.1l4.9,2.9v9.8l8.3,4.9v5.7
			L6.4,48.6V33.1z M49.6,33.1v15.6l-13.2,7.7v-5.7l8.3-4.9v-9.8L49.6,33.1z M36.4,25.3l4.9,2.9l0,0v5.7L33,38.8v9.9l-4.9,2.9
			l-4.7-2.9v-9.9l-8.6-4.9v-5.7l4.9-2.9l8.3,4.9L36.4,25.3z M14.7,38l4.9,2.9v5.7l-4.9-2.9V38z M41.3,38v5.7l-4.9,2.9v-5.7L41.3,38z
			 M11.3,20.4l4.9,2.9l-4.9,2.9V32l-4.9-2.9v-5.7L11.3,20.4z M44.9,20.4l4.9,2.9v5.7L44.9,32v-5.7L40,23.4L44.9,20.4z M28.1,20.4
			l4.9,2.9l-4.9,2.9l-4.9-2.9L28.1,20.4z M28.1,10.6l13.2,7.7l-4.9,2.9l-8.3-4.9l-8.5,4.9l-4.7-2.9L28.1,10.6z"/>
	</g>
	<g id="Layer_3">
		<g class="st1">
			<path class="st2" d="M94.2,44.6v-9.3h3.9v9.4c0,1.6,0.8,2.6,2.7,2.6c1.8,0,2.7-1.1,2.7-2.7v-9.4h3.9v9.3c0,3.6-2.2,5.8-6.6,5.8
				C96.4,50.5,94.2,48.3,94.2,44.6z M109.2,38.9h3.5v1.6h0.1c0.7-1.2,2.1-1.9,3.5-1.8c2.5,0,3.9,1.8,3.9,4.3v7.3h-3.6v-6.7
				c0-1.2-0.6-2-1.8-2s-2,1-2,2.4v6.3h-3.6V38.9L109.2,38.9z M122,34.4h3.6v3H122V34.4z M122,38.9h3.6v11.3H122V38.9z M128.4,47.2
				v-5.4h-1.5v-3h1.5v-3.5h3.5v3.6h2.1v3h-2.1v4.7c0,0.9,0.5,1.1,1.2,1.1h0.8v2.6c-0.6,0.1-1.3,0.2-2,0.2
				C129.9,50.4,128.4,49.7,128.4,47.2z M136.2,51.1h1.2c1,0,1.5-0.4,1.5-1.2c0-0.5-0.2-1.2-0.7-2.3l-3.4-8.7h3.8l1.5,4.8
				c0.3,1.1,0.7,2.6,0.7,2.6h0.1c0,0,0.3-1.5,0.7-2.6l1.5-4.8h3.6l-3.9,11.4c-0.9,2.7-2,3.6-4.2,3.6h-2.3L136.2,51.1z"/>
			<path class="st8" d="M86.5,49.8V34.4l-13.3-7.6v5.9l5.2,3c0.2,0.1,0.2,0.4,0,0.5l-6.2,3.6c-0.2,0.1-0.4,0.1-0.5,0l-6.2-3.7
				c-0.1-0.1-0.2-0.2-0.1-0.3c0-0.1,0.1-0.1,0.1-0.1l5.2-3v-5.9l-13.4,7.7v15.4l5.1-3v-6c0-0.2,0.2-0.3,0.4-0.3l0,0l6.2,3.5
				c0.2,0.1,0.3,0.3,0.3,0.5v7.1c0,0.2-0.2,0.3-0.4,0.3l0,0l-5.2-3l-5,3L72,59.7L85.3,52l-5.1-3L75,52c-0.2,0.1-0.4,0-0.4-0.3v-7.1
				c0-0.2,0.1-0.4,0.3-0.5l6.2-3.6c0.2-0.1,0.4,0,0.4,0.3v6.1L86.5,49.8z"/>
			<path class="st9" d="M71.9,59.6l13.3-7.7l-5.1-3l-5.2,3c-0.2,0.1-0.4,0-0.4-0.3v-7.1c0-0.2,0.1-0.4,0.3-0.5l6.2-3.6
				c0.2-0.1,0.4,0,0.4,0.3v6l5.1,3V34.4L72,42.8v16.8H71.9z"/>
			<path class="st10" d="M73.2,26.8v5.9l5.2,3c0.2,0.1,0.2,0.4,0,0.5l-6.2,3.6c-0.2,0.1-0.4,0.1-0.5,0l-6.2-3.7
				c-0.1-0.1-0.2-0.2-0.1-0.3c0-0.1,0.1-0.1,0.1-0.1l5.2-3v-5.9l-13.4,7.7l14.5,8.4l14.5-8.4L73.2,26.8z"/>
			<path class="st8" d="M69,52l-5.2-3l-5.1,3L72,59.6V42.9l-14.6-8.4v15.4l5.1-3v-6c0-0.2,0.2-0.3,0.4-0.3l0,0l6.1,3.5
				c0.2,0.1,0.3,0.3,0.3,0.5v7.1C69.4,52,69.2,52.2,69,52z"/>
		</g>
	</g>
</g>
<g id="Layer_3_1_" class="st0">
	<g id="Layer_3_3_" class="st1">
		<g>
			<path class="st2" d="M84,39.7V20.6h8v19.3c0,3.3,1.6,5.3,5.5,5.3c3.7,0,5.5-2.3,5.5-5.5V20.4h8v19.1c0,7.4-4.5,11.9-13.6,11.9
				C88.5,51.8,84,47.3,84,39.7z M114.8,28h7.2v3.3h0.2c1.4-2.5,4.3-3.9,7.2-3.7c5.1,0,8,3.7,8,8.8v15H130V37.7
				c0-2.5-1.2-4.1-3.7-4.1c-2.5,0-4.1,2.1-4.1,4.9v12.9h-7.4V28L114.8,28z M141.1,18.8h7.4v6.2h-7.4V18.8z M141.1,28h7.4v23.2h-7.4
				V28z M154.2,45.1V34h-3.1v-6.2h3.1v-7.2h7.2V28h4.3v6.2h-4.3v9.7c0,1.8,1,2.3,2.5,2.3h1.6v5.3c-1.2,0.2-2.7,0.4-4.1,0.4
				C157.3,51.6,154.2,50.2,154.2,45.1z M170.3,53.1h2.5c2.1,0,3.1-0.8,3.1-2.5c0-1-0.4-2.5-1.4-4.7l-7-17.9h7.8l3.1,9.9
				c0.6,2.3,1.4,5.3,1.4,5.3h0.2c0,0,0.6-3.1,1.4-5.3l3.1-9.9h7.4l-8,23.4c-1.8,5.5-4.1,7.4-8.6,7.4h-4.7L170.3,53.1z"/>
			<path class="st8" d="M68.2,50.4V18.8L40.8,3.2v12.1l10.7,6.2c0.4,0.2,0.4,0.8,0,1l-12.7,7.4c-0.4,0.2-0.8,0.2-1,0L25,22.3
				c-0.2-0.2-0.4-0.4-0.2-0.6c0-0.2,0.2-0.2,0.2-0.2l10.7-6.2V3.2L8.2,19v31.6l10.5-6.2V32.1c0-0.4,0.4-0.6,0.8-0.6l0,0l12.7,7.2
				c0.4,0.2,0.6,0.6,0.6,1v14.6c0,0.4-0.4,0.6-0.8,0.6l0,0l-10.7-6.2L11,54.9l27.3,15.8l27.3-15.8l-10.5-6.2l-10.7,6.2
				c-0.4,0.2-0.8,0-0.8-0.6V39.7c0-0.4,0.2-0.8,0.6-1l12.7-7.4c0.4-0.2,0.8,0,0.8,0.6v12.5L68.2,50.4z"/>
			<path class="st9" d="M38.2,70.5l27.3-15.8L55,48.6l-10.7,6.2c-0.4,0.2-0.8,0-0.8-0.6V39.5c0-0.4,0.2-0.8,0.6-1l12.7-7.4
				c0.4-0.2,0.8,0,0.8,0.6V44l10.5,6.2V18.8L38.4,36v34.5H38.2z"/>
			<path class="st10" d="M40.8,3.2v12.1l10.7,6.2c0.4,0.2,0.4,0.8,0,1l-12.7,7.4c-0.4,0.2-0.8,0.2-1,0L25,22.3
				c-0.2-0.2-0.4-0.4-0.2-0.6c0-0.2,0.2-0.2,0.2-0.2l10.7-6.2V3.2L8.2,19l29.8,17.3L67.7,19L40.8,3.2z"/>
			<path class="st8" d="M32.2,54.9l-10.7-6.2L11,54.9l27.3,15.6V36.2L8.4,19v31.6l10.5-6.2V32.1c0-0.4,0.4-0.6,0.8-0.6l0,0l12.5,7.2
				c0.4,0.2,0.6,0.6,0.6,1v14.6C33,54.9,32.6,55.3,32.2,54.9z"/>
		</g>
	</g>
</g>
<g id="Layer_2">
	<g id="Layer_1_2_">
		<g>
			<path class="st2" d="M41.6,44.2c-0.5,0-0.7-0.1-0.9-0.2c-0.1-0.2-0.2-0.5-0.2-0.8V29.8c0-0.3,0.1-0.7,0.2-0.8
				c0.2-0.2,0.5-0.3,0.9-0.3h5.6c2.2,0,3.7,0.5,4.7,1.3c0.9,0.9,1.5,2.3,1.5,4s-0.5,3.1-1.5,4c-0.9,0.8-2.7,1.3-4.7,1.3h-2.2v3.7
				c0,0.3-0.1,0.7-0.2,0.8c-0.2,0.2-0.5,0.2-0.9,0.2h-2.3v0.1H41.6z M46.8,36c0.6,0,1-0.1,1.4-0.5c0.3-0.3,0.5-0.8,0.5-1.5
				s-0.1-1.2-0.5-1.5c-0.3-0.3-0.8-0.5-1.4-0.5h-1.7v4h1.7V36z"/>
			<path class="st2" d="M58.8,44.5c-1.4,0-2.7-0.5-3.5-1.4c-0.8-0.9-1.3-2.3-1.3-3.9c0-1.3,0.2-2.4,0.8-3.3s1.4-1.6,2.5-2.3
				c1-0.5,2.4-0.8,3.7-0.8c1.2,0,2.2,0.1,3.1,0.3s1.6,0.6,2.5,1v9.1c0,0.2,0,0.5-0.1,0.6S66.1,44,65.8,44h-2.4c-0.1,0-0.3,0-0.3-0.1
				c-0.1-0.1-0.1-0.1-0.2-0.2L62.6,43c-0.5,0.5-0.9,0.8-1.5,1C60.5,44.4,59.7,44.5,58.8,44.5z M60.5,41.4c0.6,0,1-0.1,1.4-0.5
				c0.3-0.2,0.5-0.7,0.5-1.2v-3.6c-0.2-0.1-0.7-0.2-1-0.2c-0.8,0-1.4,0.2-2,0.8c-0.5,0.6-0.7,1.3-0.7,2.4
				C58.7,40.6,59.4,41.4,60.5,41.4z"/>
			<path class="st2" d="M69.9,44.2c-0.5,0-0.7-0.1-0.9-0.2c-0.2-0.2-0.2-0.5-0.2-0.8v-9.3c0-0.2,0-0.5,0.1-0.6
				c0.1-0.1,0.3-0.1,0.6-0.1h2.4c0.2,0,0.3,0,0.3,0.1c0.1,0,0.1,0.1,0.2,0.2l0.1,0.7c0.5-0.5,0.9-0.7,1.6-0.9
				c0.7-0.2,1.4-0.3,2.4-0.3c1.2,0,2.3,0.3,3,1c0.7,0.7,1.2,1.6,1.2,3.1v6.1c0,0.3-0.1,0.7-0.2,0.8c-0.1,0.2-0.5,0.2-0.9,0.2h-2.3
				c-0.5,0-0.7-0.1-0.9-0.2c-0.2-0.2-0.2-0.5-0.2-0.8v-5.7c0-0.5-0.1-0.8-0.3-0.9c-0.2-0.2-0.5-0.3-0.9-0.3s-0.8,0.1-1,0.3
				c-0.2,0.2-0.3,0.6-0.3,0.9v5.7c0,0.3-0.1,0.7-0.2,0.8c-0.1,0.2-0.5,0.2-0.9,0.2L69.9,44.2L69.9,44.2z"/>
			<path class="st2" d="M88.8,44.5c-2.2,0-3.8-0.5-5-1.5c-1.2-0.9-1.7-2.4-1.7-4.3c0-1.2,0.2-2.2,0.8-3.1c0.5-0.8,1.3-1.5,2.3-2.1
				c1-0.5,2.3-0.7,3.6-0.7c1,0,2,0.1,2.7,0.3c0.7,0.2,1.4,0.5,2,0.9c0.1,0.1,0.2,0.2,0.2,0.3s-0.1,0.2-0.2,0.5l-0.9,1.6
				c-0.1,0.2-0.2,0.3-0.3,0.3c-0.1,0-0.2-0.1-0.5-0.2c-0.3-0.2-0.8-0.5-1.2-0.6c-0.3-0.1-0.8-0.2-1.3-0.2c-0.7,0-1.4,0.2-2,0.7
				c-0.5,0.5-0.7,1.2-0.7,2.1c0,0.8,0.2,1.5,0.7,2.1c0.5,0.5,1,0.7,2,0.7c0.5,0,0.9-0.1,1.3-0.2c0.3-0.1,0.8-0.3,1.2-0.6
				c0.2-0.1,0.3-0.2,0.5-0.2c0.1,0,0.2,0.1,0.3,0.3l1,1.7c0.1,0.1,0.1,0.2,0.1,0.3c0,0.1-0.1,0.2-0.2,0.3c-0.6,0.3-1.3,0.7-2.2,0.9
				C90.8,44.4,89.9,44.5,88.8,44.5z"/>
			<path class="st2" d="M99.7,44.5c-1.4,0-2.7-0.5-3.5-1.4c-0.8-0.9-1.3-2.3-1.3-3.9c0-1.3,0.2-2.4,0.8-3.3c0.6-0.9,1.4-1.6,2.5-2.3
				c1-0.5,2.4-0.8,3.7-0.8c1.2,0,2.2,0.1,3.1,0.3s1.6,0.6,2.5,1v9.1c0,0.2,0,0.5-0.1,0.6c-0.1,0.1-0.3,0.1-0.6,0.1h-2.4
				c-0.1,0-0.3,0-0.3-0.1c-0.1-0.1-0.1-0.1-0.2-0.2l-0.3-0.7c-0.5,0.5-0.9,0.8-1.5,1C101.3,44.4,100.6,44.5,99.7,44.5z M101.5,41.4
				c0.6,0,1-0.1,1.4-0.5c0.3-0.2,0.5-0.7,0.5-1.2v-3.6c-0.2-0.1-0.7-0.2-1-0.2c-0.8,0-1.4,0.2-2,0.8s-0.7,1.3-0.7,2.4
				C99.6,40.6,100.2,41.4,101.5,41.4z"/>
			<path class="st2" d="M122.1,43.4c0.1,0.1,0.1,0.2,0.1,0.3s0,0.2-0.1,0.3c-0.1,0.1-0.2,0.1-0.3,0.1h-3.6c-0.2,0-0.3,0-0.5,0
				c-0.1,0-0.2-0.1-0.3-0.2l-3.1-4.3v3.3c0,0.3-0.1,0.7-0.2,0.8c-0.2,0.2-0.5,0.2-0.9,0.2h-2.3c-0.5,0-0.7-0.1-0.9-0.2
				c-0.1-0.2-0.2-0.5-0.2-0.8V29.7c0-0.3,0.1-0.7,0.2-0.8c0.2-0.2,0.5-0.3,0.9-0.3h2.3c0.5,0,0.7,0.1,0.9,0.3
				c0.2,0.2,0.2,0.5,0.2,0.8v7.6l3-3.9c0.1-0.1,0.2-0.2,0.3-0.2c0.1,0,0.2-0.1,0.5-0.1h3.6c0.1,0,0.2,0,0.3,0.1s0.1,0.2,0.1,0.3
				s0,0.2-0.1,0.3l-3.9,4.5L122.1,43.4z"/>
			<path class="st2" d="M129.5,44.5c-1.3,0-2.4-0.2-3.5-0.6c-0.9-0.5-1.7-1-2.4-2c-0.6-0.9-0.8-2-0.8-3.1c0-2,0.6-3.5,1.6-4.4
				c1-1,2.8-1.5,4.7-1.5c2.1,0,3.6,0.5,4.5,1.5c1,0.9,1.5,2.4,1.5,4.2c0,0.7-0.3,1.2-0.9,1.2h-7.2c0,0.7,0.2,1.2,0.7,1.5
				c0.5,0.3,1.3,0.5,2.3,0.5c0.6,0,1.2,0,1.5-0.1c0.5-0.1,0.8-0.3,1.3-0.5c0.2-0.1,0.3-0.1,0.3-0.1c0.1,0,0.2,0.1,0.3,0.2l0.8,1.4
				c0.1,0.1,0.1,0.2,0.1,0.3s-0.1,0.2-0.2,0.3c-0.6,0.3-1.3,0.7-2.2,0.9C131.4,44.4,130.6,44.5,129.5,44.5z M131.3,37.4
				c0-0.6-0.1-1-0.5-1.3c-0.3-0.3-0.8-0.5-1.5-0.5s-1.2,0.1-1.5,0.5c-0.3,0.3-0.5,0.7-0.5,1.3H131.3z"/>
			<path class="st2" d="M143.3,44.5c-1.3,0-2.5-0.1-3.7-0.3c-1.2-0.2-2.1-0.7-2.8-1.2c-0.2-0.1-0.3-0.3-0.3-0.5s0-0.2,0.1-0.3l1-1.7
				c0.1-0.2,0.2-0.2,0.3-0.2s0.2,0,0.3,0.1c0.6,0.3,1.2,0.6,2,0.8c0.7,0.2,1.4,0.3,2.2,0.3s1.2-0.1,1.5-0.3c0.3-0.2,0.5-0.6,0.5-1
				c0-0.5-0.2-0.8-0.6-1c-0.3-0.2-1-0.6-2.2-0.9c-1.5-0.6-2.8-1.2-3.6-2c-0.8-0.7-1.3-1.7-1.3-3c0-1.5,0.6-2.7,1.6-3.5
				c1-0.8,2.5-1.2,4.3-1.2c1.3,0,2.4,0.1,3.2,0.3c0.9,0.2,1.6,0.6,2.3,0.9c0.2,0.2,0.3,0.3,0.3,0.6c0,0.1,0,0.2-0.1,0.3l-1,1.7
				c-0.1,0.2-0.2,0.2-0.3,0.2s-0.2,0-0.3-0.1c-0.8-0.6-2-0.8-3.2-0.8c-0.7,0-1.2,0.1-1.5,0.3c-0.3,0.2-0.5,0.6-0.5,1
				c0,0.3,0.1,0.6,0.2,0.8c0.2,0.2,0.5,0.3,0.7,0.6c0.3,0.1,0.8,0.3,1.4,0.6l0.5,0.1c1,0.5,2.1,0.8,2.7,1.3c0.7,0.3,1.2,0.9,1.5,1.5
				c0.3,0.6,0.5,1.3,0.5,2.2c0,1.3-0.5,2.5-1.5,3.2C146.8,44.1,145.2,44.5,143.3,44.5z"/>
			<path class="st2" d="M154.1,44.2c-0.2,0-0.3,0-0.5-0.1c-0.1-0.1-0.2-0.2-0.2-0.5l-3-9.9c0-0.1,0-0.1,0-0.2c0-0.2,0.1-0.3,0.5-0.3
				h3c0.2,0,0.3,0,0.5,0.1c0.1,0.1,0.1,0.1,0.2,0.3l1.2,5.2l1.5-4.2c0.1-0.2,0.1-0.3,0.2-0.3c0.1-0.1,0.2-0.1,0.5-0.1h1.4
				c0.2,0,0.3,0,0.5,0.1c0.1,0.1,0.1,0.2,0.2,0.3l1.5,4.2l1.3-5.2c0-0.1,0.1-0.2,0.2-0.3c0.1-0.1,0.2-0.1,0.3-0.1h3.1
				c0.3,0,0.5,0.1,0.5,0.3c0,0,0,0.1,0,0.2l-3,9.9c-0.1,0.2-0.1,0.3-0.2,0.5c-0.1,0.2-0.2,0.1-0.5,0.1h-2.3c-0.2,0-0.3,0-0.5-0.1
				c-0.1-0.1-0.2-0.2-0.2-0.5l-1.5-4.2l-1.5,4.2c-0.1,0.2-0.1,0.3-0.2,0.5c-0.1,0.1-0.2,0.1-0.5,0.1H154.1z"/>
			<path class="st2" d="M172.8,44.5c-1.4,0-2.7-0.5-3.5-1.4c-0.8-0.9-1.3-2.3-1.3-3.9c0-1.3,0.2-2.4,0.8-3.3s1.4-1.6,2.5-2.3
				c1-0.5,2.4-0.8,3.7-0.8c1.2,0,2.2,0.1,3.1,0.3c0.9,0.2,1.6,0.6,2.5,1v9.1c0,0.2,0,0.5-0.1,0.6s-0.3,0.1-0.6,0.1h-2.4
				c-0.1,0-0.2,0-0.3-0.1c-0.1-0.1-0.1-0.1-0.2-0.2l-0.3-0.7c-0.5,0.5-0.9,0.8-1.5,1C174.4,44.4,173.7,44.5,172.8,44.5z M174.5,41.4
				c0.6,0,1-0.1,1.4-0.5c0.3-0.2,0.5-0.7,0.5-1.2v-3.6c-0.2-0.1-0.7-0.2-1-0.2c-0.8,0-1.4,0.2-2,0.8c-0.5,0.6-0.7,1.3-0.7,2.4
				C172.6,40.6,173.2,41.4,174.5,41.4z"/>
			<path class="st2" d="M183.8,48.8c-0.5,0-0.7-0.1-0.9-0.2c-0.1-0.2-0.2-0.5-0.2-0.8V34.7c0.7-0.5,1.5-0.9,2.7-1.2
				c1-0.3,2.2-0.5,3.2-0.5c4.6,0,6.9,2,6.9,5.9c0,1.7-0.5,3.2-1.4,4.3c-0.9,1-2.4,1.5-4.2,1.5c-0.5,0-0.9-0.1-1.4-0.2
				s-0.8-0.2-1.2-0.5v3.8c0,0.3-0.1,0.7-0.2,0.8c-0.2,0.2-0.5,0.2-0.9,0.2h-2.2V48.8z M188.8,41.4c0.7,0,1.2-0.2,1.4-0.7
				c0.3-0.5,0.5-1.2,0.5-2.1c0-0.9-0.2-1.6-0.6-2.2c-0.3-0.3-0.9-0.6-1.7-0.6c-0.5,0-0.9,0.1-1.2,0.2v3.6c0,0.5,0.1,0.9,0.5,1.2
				C187.9,41.3,188.4,41.4,188.8,41.4z"/>
			<path class="st3" d="M10,25.9c-0.5-2.4,1.4-4.6,3.8-4.6c2.2,0,3.9,1.7,3.9,3.9V30c0.6,0,1,0,1.6,0c0.5,0,1,0,1.5,0v-4.7
				c0-2.2,1.7-3.9,3.9-3.9c2.4,0,4.3,2.3,3.8,4.6l-1,5.6c3.6,1.5,6.4,4.3,6.4,7.7v2.1c0,2.9-2,5.2-4.5,6.8
				c-2.7,1.6-6.2,2.7-10.2,2.7s-7.5-0.9-10.2-2.7c-2.5-1.5-4.4-3.9-4.4-6.8v-2.1c0-3.5,2.8-6.2,6.4-7.7L10,25.9z M26.3,32.4l1.2-6.6
				c0.3-1.6-0.9-3.2-2.7-3.2c-1.5,0-2.8,1.2-2.8,2.8v6.1c-0.3,0-0.8-0.1-1.2-0.1c-0.5,0-1,0-1.5,0c-0.6,0-1,0-1.6,0.1
				c-0.3,0-0.8,0.1-1.2,0.1v-6.1c0-1.5-1.2-2.8-2.8-2.8c-1.6,0-3,1.5-2.7,3.2l1.2,6.7c-3.8,1.4-6.5,4-6.5,7v2.1
				c0,4.5,6,8.2,13.3,8.2s13.3-3.7,13.3-8.2v-2.1C32.8,36.4,30.1,33.9,26.3,32.4z"/>
			<path class="st4" d="M32.8,41.4c0,4.5-6,8.2-13.3,8.2S6.1,46,6.1,41.4v-2.1h26.8L32.8,41.4L32.8,41.4z"/>
			<path class="st5" d="M11.2,25.7c-0.3-1.6,0.9-3.2,2.7-3.2c1.5,0,2.8,1.2,2.8,2.8v6.2c0.9-0.1,2-0.2,2.9-0.2c0.9,0,2,0.1,2.8,0.1
				v-6.1c0-1.5,1.2-2.8,2.8-2.8c1.6,0,3,1.5,2.7,3.2l-1.2,6.6c3.9,1.4,6.6,4,6.6,7c0,4.5-6,8.2-13.3,8.2S6.4,43.8,6.4,39.3
				c0-3,2.7-5.6,6.5-7L11.2,25.7z"/>
			<path class="st6" d="M15.7,38.9c0,1.2-0.7,2.3-1.4,2.3s-1.4-0.9-1.4-2.3c0-1.2,0.7-2.3,1.4-2.3C15,36.6,15.7,37.5,15.7,38.9z"/>
			<path class="st6" d="M26,38.9c0,1.2-0.7,2.3-1.4,2.3c-0.8,0-1.4-0.9-1.4-2.3c0-1.2,0.7-2.3,1.4-2.3C25.3,36.6,26,37.5,26,38.9z"
				/>
		</g>
	</g>
</g>
</svg>
