<?xml version="1.0" encoding="utf-8"?>
<!-- Generator: Adobe Illustrator 25.2.3, SVG Export Plug-In . SVG Version: 6.00 Build 0)  -->
<svg version="1.0"
	 id="layer1" xmlns:cc="http://web.resource.org/cc/" xmlns:dc="http://purl.org/dc/elements/1.1/" xmlns:rdf="http://www.w3.org/1999/02/22-rdf-syntax-ns#" xmlns:svg="http://www.w3.org/2000/svg"
	 xmlns="http://www.w3.org/2000/svg" xmlns:xlink="http://www.w3.org/1999/xlink" x="0px" y="0px" viewBox="0 0 400 400"
	 style="enable-background:new 0 0 400 400;" xml:space="preserve">
<style type="text/css">
	.st0{fill:#FFFFFF;}
</style>
<path class="st0" d="M215.6,61.3c-4.7-2.2-10.3-1.4-14.3,2l-87.7,75.9H32c-7.4,0-13.3,6-13.3,13.3v101.8c0,7.4,6,13.3,13.3,13.3
	h80.3l89,77c2.5,2.1,5.6,3.2,8.7,3.2c1.9,0,3.8-0.4,5.5-1.2c4.7-2.2,7.8-6.9,7.8-12.1V73.4C223.4,68.2,220.4,63.5,215.6,61.3z"/>
<path class="st0" d="M334.6,207.5l43-43c5.3-5.3,5.3-13.8,0-19.1c-5.3-5.3-13.8-5.3-19.1,0l-43,43l-43-43c-5.3-5.3-13.8-5.3-19.1,0
	c-5.3,5.3-5.3,13.8,0,19.1l43,43l-43,43c-5.3,5.3-5.3,13.8,0,19.1c2.6,2.6,6.1,4,9.5,4s6.9-1.3,9.5-4l43-43l43,43
	c2.6,2.6,6.1,4,9.5,4s6.9-1.3,9.5-4c5.3-5.3,5.3-13.8,0-19.1L334.6,207.5z"/>
</svg>
