<?xml version="1.0" encoding="utf-8"?>
<!-- Generator: Adobe Illustrator 25.2.3, SVG Export Plug-In . SVG Version: 6.00 Build 0)  -->
<svg version="1.0"
	 id="layer1" xmlns:cc="http://web.resource.org/cc/" xmlns:dc="http://purl.org/dc/elements/1.1/" xmlns:rdf="http://www.w3.org/1999/02/22-rdf-syntax-ns#" xmlns:svg="http://www.w3.org/2000/svg"
	 xmlns="http://www.w3.org/2000/svg" xmlns:xlink="http://www.w3.org/1999/xlink" x="0px" y="0px" viewBox="0 0 400 400"
	 style="enable-background:new 0 0 400 400;" xml:space="preserve">
<style type="text/css">
	.st0{fill:#FFFFFF;}
</style>
<g>
	<path class="st0" d="M215.6,61.3c-4.7-2.2-10.3-1.4-14.3,2l-87.7,75.9H32c-7.4,0-13.3,6-13.3,13.3v101.8c0,7.4,6,13.3,13.3,13.3
		h80.3l89,77c2.5,2.1,5.6,3.2,8.7,3.2c1.9,0,3.8-0.4,5.5-1.2c4.7-2.2,7.8-6.9,7.8-12.1V73.4C223.4,68.2,220.4,63.5,215.6,61.3z"/>
	<path class="st0" d="M267.5,139.9c-3.9-6.2-12.2-8.1-18.4-4.1c-6.2,3.9-8.1,12.2-4.1,18.4c9.6,15.2,14.7,32.6,14.7,50.5
		c0,17.5-5,34.7-14.3,49.8c-3.9,6.2-2,14.5,4.3,18.4c2.2,1.4,4.6,2,7,2c4.5,0,8.8-2.2,11.3-6.3c12-19.3,18.3-41.3,18.3-63.9
		C286.3,181.8,279.8,159.4,267.5,139.9z"/>
	<path class="st0" d="M304.5,101.6c-4.4-5.9-12.7-7.2-18.7-2.8c-5.9,4.4-7.2,12.7-2.8,18.7c18.8,25.4,28.8,55.5,28.8,87.2
		c0,31.4-9.8,61.3-28.3,86.5c-4.4,5.9-3.1,14.3,2.9,18.6c2.4,1.7,5.1,2.6,7.9,2.6c4.1,0,8.2-1.9,10.8-5.5
		c21.9-29.8,33.5-65.2,33.5-102.3C338.5,167.3,326.7,131.6,304.5,101.6z"/>
	<path class="st0" d="M339,66.4c-4.6-5.8-13-6.7-18.7-2.1c-5.8,4.6-6.7,13-2.1,18.7c27.8,34.9,42.5,77,42.5,121.7
		c0,44.3-14.5,86.2-42,121c-4.6,5.8-3.6,14.2,2.2,18.7c2.4,1.9,5.4,2.9,8.3,2.9c3.9,0,7.8-1.7,10.5-5.1
		c31.2-39.5,47.8-87.1,47.8-137.5C387.3,153.9,370.6,106.1,339,66.4z"/>
</g>
</svg>
