<svg width="1033" height="287" viewBox="0 0 1033 287" fill="none" xmlns="http://www.w3.org/2000/svg">
    <g opacity="0.4">
        <path d="M626.02 143.533L587.834 143.533L587.014 142.315L587.834 141.198L626.02 141.198L626.02 143.533Z" fill="white"/>
        <path d="M585.021 119.255L585.021 121.105L649.983 121.105L649.983 119.255L585.021 119.255Z" fill="white"/>
        <path d="M590.399 106.092L590.399 107.107L640.178 107.107L640.178 106.092L590.399 106.092Z" fill="white"/>
        <path d="M697.949 165.865L670.834 165.865L670.834 166.828L697.545 166.828L716.793 185.799L716.793 207.62L738.56 229.08L874.796 229.08L874.796 228.117L738.965 228.117L717.769 207.221L717.769 185.4L697.949 165.865Z" fill="white"/>
        <path d="M702.39 161.349L671.05 161.349L671.05 162.791L701.786 162.791L725.658 186.325L783.996 186.325L802.439 168.141L930.193 168.141L930.193 166.694L801.835 166.694L783.386 184.878L726.263 184.878L702.39 161.349Z" fill="white"/>
        <path d="M756.907 85.1691L714.92 85.1691L676.37 123.169L676.37 139.853L665.222 150.841L603.879 150.841L603.879 152.766L666.031 152.766L678.324 140.651L678.324 123.967L715.729 87.0943L756.098 87.0943" fill="white"/>
        <path d="M826.268 75.2447L808.612 57.8375L660.991 57.8375L660.883 57.9439L617.148 101.05L582.958 101.05L582.958 101.773L617.456 101.773L617.563 101.667L661.293 58.5608L808.31 58.5608L825.966 75.968" fill="white"/>
        <path d="M674.304 168.067L670.985 168.067L670.985 171.338L674.304 171.338L674.304 168.067Z" fill="white"/>
        <path d="M781.152 181.485L754.036 181.485L754.036 180.522L780.747 180.522L799.995 161.551L799.995 139.735L821.768 118.275L886.264 118.275L886.264 119.238L822.173 119.238L800.971 140.134L800.971 161.95L781.152 181.485Z" fill="white"/>
    </g>
    <g opacity="0.4">
        <path d="M390.386 143.533L428.345 143.533L429.161 142.315L428.345 141.198L390.386 141.198L390.386 143.533Z" fill="white"/>
        <path d="M431.142 119.255L431.142 121.105L366.566 121.105L366.566 119.255L431.142 119.255Z" fill="white"/>
        <path d="M425.796 106.092L425.796 107.107L376.313 107.107L376.313 106.092L425.796 106.092Z" fill="white"/>
        <path d="M318.884 165.865L345.838 165.865L345.838 166.828L319.286 166.828L300.153 185.799L300.153 207.62L278.514 229.08L143.088 229.08L143.088 228.117L278.112 228.117L299.182 207.221L299.182 185.4L318.884 165.865Z" fill="white"/>
        <path d="M314.47 161.349L345.624 161.349L345.624 162.791L315.07 162.791L291.34 186.325L233.349 186.325L215.015 168.141L88.0203 168.141L88.0203 166.694L215.616 166.694L233.955 184.878L290.739 184.878L314.47 161.349Z" fill="white"/>
        <path d="M260.277 85.1691L302.014 85.1691L340.335 123.169L340.335 139.853L351.417 150.841L412.396 150.841L412.396 152.766L350.612 152.766L338.393 140.651L338.393 123.967L301.21 87.0943L261.081 87.0943" fill="white"/>
        <path d="M191.328 75.2447L208.879 57.8375L355.623 57.8375L355.73 57.9439L399.206 101.05L433.193 101.05L433.193 101.773L398.9 101.773L398.793 101.667L355.322 58.5608L209.179 58.5608L191.628 75.968" fill="white"/>
        <path d="M342.389 168.067L345.688 168.067L345.688 171.338L342.389 171.338L342.389 168.067Z" fill="white"/>
        <path d="M236.176 181.485L263.13 181.485L263.13 180.522L236.578 180.522L217.445 161.551L217.445 139.735L195.801 118.275L131.688 118.275L131.688 119.238L195.399 119.238L216.474 140.134L216.474 161.95L236.176 181.485Z" fill="white"/>
    </g>
    <path d="M1032.72 0L1032.72 286.171L539.062 286.171L539.062 5.3244e-06L1032.72 0Z" fill="url(#paint0_linear_338_3286)"/>
    <rect y="286.171" width="286.171" height="496.382" transform="rotate(-90 0 286.171)" fill="url(#paint1_linear_338_3286)"/>
    <defs>
        <linearGradient id="paint0_linear_338_3286" x1="1119.86" y1="143.085" x2="626.201" y2="143.085" gradientUnits="userSpaceOnUse">
            <stop/>
            <stop offset="1" stop-opacity="0"/>
        </linearGradient>
        <linearGradient id="paint1_linear_338_3286" x1="143.085" y1="286.171" x2="143.085" y2="782.553" gradientUnits="userSpaceOnUse">
            <stop/>
            <stop offset="1" stop-opacity="0"/>
        </linearGradient>
    </defs>
</svg>
