
<svg width="1402" height="485" viewBox="0 0 1402 485" fill="none" xmlns="http://www.w3.org/2000/svg">
    <path d="M1401.87 11.6553H1376.18V18.0029H1401.87V11.6553Z" fill="#DADAD9"/>
    <path d="M1401.87 476.732H1376.18V479.906H1401.87V476.732Z" fill="#DADAD9"/>
    <path d="M1391.15 456.714H1351.27V457.336H1391.15V456.714Z" fill="#DADAD9"/>
    <path d="M1391.14 439.317H1371.49V439.94H1391.14V439.317Z" fill="#DADAD9"/>
    <path d="M1305.56 17.9336L1372.59 17.9336V17.2244L1305.56 17.2244V17.9336Z" fill="#DADAD9"/>
    <path d="M1349.75 0H1317.14V0.631306H1349.75V0Z" fill="#DADAD9"/>
    <path d="M104.551 447.488H40.8809V450.074H104.551V447.488Z" fill="#DADAD9"/>
    <path d="M45.5309 10.2969H11.8809V12.8826H45.5309V10.2969Z" fill="#DADAD9"/>
    <path d="M102.091 83.7207H68.4409V84.672H102.091V83.7207Z" fill="#DADAD9"/>
    <path d="M44.0011 481.774H40.8711V485H44.0011V481.774Z" fill="#DADAD9"/>
    <g opacity="0.3">
        <path opacity="0.7" d="M133.528 29.4681L115.214 29.4681L115.214 31.6536L132.885 31.6536L145.14 48.919L1276.15 48.9192L1276.15 46.7337L145.782 46.7335L133.528 29.4681Z" fill="white"/>
        <path opacity="0.7" d="M1275.89 54.376L1198.93 54.376L1198.93 53.9465L1275.89 53.9466L1275.89 54.376Z" fill="white"/>
        <path opacity="0.7" d="M1317.75 32.3714L1279.14 32.3714L1279.14 56.5957L1317.75 56.5957L1317.75 32.3714ZM1280.08 33.6597L1316.8 33.6597L1316.8 55.3074L1280.08 55.3074L1280.08 33.6597Z" fill="white"/>
        <path opacity="0.7" d="M1401.87 48.5777L1327.6 48.5776L1327.6 46.4305L1401.87 46.4305L1401.87 48.5777Z" fill="white"/>
        <path opacity="0.7" d="M1332.47 42.0371L1327.75 42.0371L1327.75 35.5956L1332.47 35.5956L1332.47 42.0371Z" fill="white"/>
        <path opacity="0.7" d="M133.78 56.0625L133.78 55.6932L1125.82 55.6934L1125.82 56.0627" fill="white"/>
        <path opacity="0.7" d="M1125.97 55.4792L133.621 55.479L133.621 56.063L133.936 56.063L133.936 55.9084L1125.66 55.9086L1125.66 56.0632L1125.97 56.0632L1125.97 55.4792Z" fill="white"/>
        <path opacity="0.8" d="M128.208 55.5468L106.157 55.5468C106.098 55.3155 105.979 55.1215 105.824 54.9995C105.668 54.8775 105.485 54.8356 105.309 54.8821C105.132 54.9285 104.974 55.06 104.863 55.2524C104.752 55.4447 104.695 55.6852 104.702 55.9301C104.71 56.1749 104.782 56.4079 104.905 56.5864C105.028 56.7648 105.194 56.8768 105.373 56.9022C105.552 56.9276 105.731 56.8648 105.879 56.7248C106.026 56.5848 106.132 56.3772 106.176 56.1398L128.189 56.1398C128.233 56.377 128.337 56.5849 128.484 56.7256C128.63 56.8663 128.809 56.93 128.988 56.9055C129.166 56.8811 129.332 56.7699 129.455 56.5923C129.578 56.4146 129.65 56.1823 129.658 55.9381C129.666 55.6938 129.609 55.4539 129.498 55.262C129.387 55.0702 129.229 54.9393 129.053 54.8934C128.877 54.8475 128.695 54.8897 128.54 55.0121C128.384 55.1345 128.267 55.3287 128.208 55.5598L128.208 55.5468Z" fill="white"/>
        <path opacity="0.8" d="M128.913 54.6458C128.744 54.6456 128.579 54.7097 128.436 54.8312C128.293 54.9526 128.178 55.1264 128.104 55.3327L106.261 55.3327C106.189 55.1367 106.079 54.9708 105.944 54.8517C105.809 54.7326 105.653 54.6648 105.493 54.6555C105.332 54.6461 105.172 54.6956 105.03 54.7985C104.888 54.9014 104.769 55.054 104.685 55.2409C104.6 55.4278 104.554 55.6422 104.551 55.8616C104.548 56.0809 104.587 56.2975 104.666 56.4889C104.744 56.6804 104.859 56.8398 104.998 56.9507C105.136 57.0615 105.294 57.1195 105.455 57.1192C105.634 57.12 105.809 57.0479 105.958 56.9117C106.107 56.7754 106.222 56.5816 106.289 56.3552L128.082 56.3552C128.161 56.6203 128.304 56.8396 128.489 56.9758C128.673 57.1121 128.886 57.1565 129.092 57.1016C129.298 57.0468 129.483 56.896 129.617 56.6751C129.75 56.4543 129.823 56.1774 129.822 55.8913C129.823 55.7278 129.8 55.5654 129.755 55.4141C129.71 55.2628 129.643 55.1252 129.558 55.0094C129.473 54.8936 129.373 54.8022 129.262 54.7398C129.151 54.6773 129.033 54.6452 128.913 54.6458ZM128.318 55.7622L128.356 55.6162C128.396 55.4326 128.484 55.275 128.602 55.1721C128.721 55.0692 128.862 55.0281 129.001 55.056C129.141 55.0838 129.268 55.1788 129.359 55.3239C129.451 55.469 129.502 55.6543 129.502 55.846C129.502 56.0378 129.451 56.2231 129.359 56.3682C129.268 56.5132 129.141 56.6087 129.001 56.6366C128.862 56.6644 128.721 56.6229 128.602 56.52C128.484 56.4171 128.396 56.2595 128.356 56.0759L128.327 55.9127L106.05 55.9127L106.022 56.0759C105.994 56.2212 105.937 56.3528 105.857 56.4562C105.778 56.5596 105.678 56.6307 105.57 56.6609C105.462 56.691 105.351 56.6791 105.247 56.6269C105.144 56.5747 105.054 56.484 104.987 56.3652C104.919 56.2465 104.878 56.1045 104.867 55.9551C104.855 55.8057 104.875 55.655 104.924 55.5202C104.972 55.3854 105.047 55.2721 105.141 55.1927C105.234 55.1133 105.342 55.0711 105.452 55.0711C105.573 55.0723 105.691 55.1239 105.79 55.2191C105.889 55.3142 105.964 55.4485 106.006 55.6036L106.044 55.7496L128.318 55.7622Z" fill="white"/>
        <path opacity="0.6" d="M1302.73 35.9518L1302.73 52.9712L1314.81 44.4638L1302.73 35.9518Z" fill="white"/>
    </g>
    <path d="M15.1626 31.8691L11.1021 55.3301H5.5752L9.65186 31.8691H15.1626ZM22.0107 31.8691L21.2534 36.2358H2.19141L2.96484 31.8691H22.0107ZM39.3461 50.9795L38.5887 55.3301H26.4232L27.1805 50.9795H39.3461ZM32.4818 31.8691L28.4051 55.3301H22.8944L26.9549 31.8691H32.4818ZM39.475 41.1826L38.7499 45.3882H28.1473L28.8885 41.1826H39.475ZM42.6976 31.8691L41.9403 36.2358H29.7264L30.4999 31.8691H42.6976ZM56.2946 37.0737L47.6579 55.3301H41.551L53.9904 31.8691H57.8899L56.2946 37.0737ZM57.7771 55.3301L55.3923 36.5098L55.5212 31.8691H59.195L63.5295 55.3301H57.7771ZM59.0339 46.5806L58.2605 50.9473H46.5461L47.3195 46.5806H59.0339ZM74.7901 31.8691H79.1085L81.3482 48.1436L89.2437 31.8691H93.9166L82.1217 55.3301H78.4639L74.7901 31.8691ZM71.9703 31.8691H76.627L74.3389 50.0933L73.4205 55.3301H67.9097L71.9703 31.8691ZM91.8702 31.8691H96.5592L92.4986 55.3301H86.9556L87.9547 49.626L91.8702 31.8691Z" fill="white"/>
</svg>
