<svg width="1484" height="1129" viewBox="0 0 1484 1129" fill="none" xmlns="http://www.w3.org/2000/svg">
<path fill-rule="evenodd" clip-rule="evenodd" d="M1242.3 211.509H1188.51V199.45H1254.36V258.652H1242.3V211.509Z" fill="#2C4045"/>
<path fill-rule="evenodd" clip-rule="evenodd" d="M242.607 211.586H296.74V199.45H230.471V259.03H242.607V211.586Z" fill="#2C4045"/>
<path fill-rule="evenodd" clip-rule="evenodd" d="M242.53 854.941L296.319 854.941L296.319 867L230.471 867L230.471 807.798L242.53 807.798L242.53 854.941Z" fill="#2C4045"/>
<path fill-rule="evenodd" clip-rule="evenodd" d="M1242.22 854.863L1188.09 854.863L1188.09 867L1254.36 867L1254.36 807.419L1242.22 807.419L1242.22 854.863Z" fill="#2C4045"/>
<path d="M53.5874 86.2957L49.5269 109.757H44L48.0767 86.2957H53.5874ZM60.4355 86.2957L59.6782 90.6624H40.6162L41.3896 86.2957H60.4355ZM65.3797 86.2957L74.0648 86.3118C75.4935 86.3333 76.8094 86.5911 78.0126 87.0852C79.2157 87.5793 80.161 88.3367 80.8485 89.3572C81.536 90.3669 81.826 91.6614 81.7186 93.2405C81.6219 94.5403 81.3319 95.636 80.8485 96.5276C80.3651 97.4084 79.7098 98.1604 78.8827 98.7834C78.0555 99.4065 77.0834 99.9597 75.9662 100.443L73.9681 101.474H66.1693L66.9105 97.1077L72.2118 97.1399C72.9208 97.1292 73.5492 96.9895 74.097 96.7209C74.6556 96.4524 75.1122 96.071 75.4667 95.5769C75.8212 95.0828 76.0467 94.4812 76.1434 93.7722C76.2294 93.1921 76.2079 92.6765 76.079 92.2253C75.9501 91.7634 75.703 91.3982 75.3378 91.1296C74.9725 90.8611 74.4891 90.7107 73.8876 90.6785L70.1493 90.6624L66.8299 109.757H61.3192L65.3797 86.2957ZM73.9037 109.757L70.6649 99.3796L76.2562 99.3474L79.785 109.483V109.757H73.9037ZM97.6843 91.5002L89.0476 109.757H82.9406L95.3801 86.2957H99.2795L97.6843 91.5002ZM99.1667 109.757L96.782 90.9363L96.9109 86.2957H100.585L104.919 109.757H99.1667ZM100.424 101.007L99.6501 105.374H87.9358L88.7092 101.007H100.424ZM119.225 86.2957L115.165 109.757H109.654L113.731 86.2957H119.225ZM137.431 105.406L136.673 109.757H125.136L125.893 105.406H137.431ZM131.195 86.2957L127.118 109.757H121.607L125.668 86.2957H131.195ZM158.069 105.406L157.312 109.757H145.146L145.904 105.406H158.069ZM151.205 86.2957L147.128 109.757H141.617L145.678 86.2957H151.205ZM158.198 95.6091L157.473 99.8147H146.87L147.612 95.6091H158.198ZM161.421 86.2957L160.663 90.6624H148.45L149.223 86.2957H161.421ZM166.236 86.2957L174.921 86.3118C176.35 86.3333 177.666 86.5911 178.869 87.0852C180.072 87.5793 181.017 88.3367 181.705 89.3572C182.392 90.3669 182.682 91.6614 182.575 93.2405C182.478 94.5403 182.188 95.636 181.705 96.5276C181.221 97.4084 180.566 98.1604 179.739 98.7834C178.912 99.4065 177.94 99.9597 176.822 100.443L174.824 101.474H167.026L167.767 97.1077L173.068 97.1399C173.777 97.1292 174.405 96.9895 174.953 96.7209C175.512 96.4524 175.968 96.071 176.323 95.5769C176.677 95.0828 176.903 94.4812 177 93.7722C177.086 93.1921 177.064 92.6765 176.935 92.2253C176.806 91.7634 176.559 91.3982 176.194 91.1296C175.829 90.8611 175.345 90.7107 174.744 90.6785L171.006 90.6624L167.686 109.757H162.175L166.236 86.2957ZM174.76 109.757L171.521 99.3796L177.112 99.3474L180.641 109.483V109.757H174.76Z" fill="white"/>
<path d="M1442.92 210.016H1417.23V222.459H1442.92V210.016Z" fill="#DADAD9"/>
<path d="M1442.92 994.25H1417.23V1000.47H1442.92V994.25Z" fill="#DADAD9"/>
<path d="M1392.19 692.341H1352.31V693.562H1392.19V692.341Z" fill="#DADAD9"/>
<path d="M1392.19 305.403H1372.54V306.624H1392.19V305.403Z" fill="#DADAD9"/>
<path d="M1346.6 222.323H1413.63V220.933H1346.6V222.323Z" fill="#DADAD9"/>
<path d="M1390.8 59.7566H1358.19V60.9941H1390.8V59.7566Z" fill="#DADAD9"/>
<path d="M105.595 831.074H41.9248V836.143H105.595V831.074Z" fill="#DADAD9"/>
<path d="M75.5748 260.278H41.9248V265.346H75.5748V260.278Z" fill="#DADAD9"/>
<path d="M103.135 223.866H69.4849V225.73H103.135V223.866Z" fill="#DADAD9"/>
<path d="M45.045 1004.13H41.915V1010.46H45.045V1004.13Z" fill="#DADAD9"/>
</svg>
