<?xml version="1.0" encoding="utf-8"?>
<!-- Generator: Adobe Illustrator 25.2.3, SVG Export Plug-In . SVG Version: 6.00 Build 0)  -->
<svg version="1.1" id="Layer_1" xmlns="http://www.w3.org/2000/svg" xmlns:xlink="http://www.w3.org/1999/xlink" x="0px" y="0px"
	 viewBox="0 0 64 64" style="enable-background:new 0 0 64 64;" xml:space="preserve">
<style type="text/css">
	.st0{opacity:0.6;fill:#FFFFFF;enable-background:new    ;}
	.st1{fill:#FFFFFF;}
	.st2{opacity:0.2;fill:#6F7180;enable-background:new    ;}
	.st3{fill:#FFFFFF;enable-background:new    ;}
	.st4{opacity:0.4;fill:#6F7180;enable-background:new    ;}
	.st5{opacity:0.6;}
	.st6{opacity:0.7;}
	.st7{fill:#DEDEE2;}
	.st8{opacity:0.47;fill:#FFFFFF;enable-background:new    ;}
	.st9{font-family:'JUGGERNAUTdemo';}
	.st10{font-size:0.7734px;}
</style>
<path class="st0" d="M14.4,51.5l0.9,0.7c0.3,0.2,0.6,0.5,0.9,0.7l-0.3,0.3c-0.3-0.2-0.6-0.5-0.9-0.7l-0.9-0.8L14.4,51.5z"/>
<path class="st1" d="M17,53.5c3.9,2.7,8.6,4.4,13.4,4.6v0.4c-4.9-0.3-9.6-1.9-13.6-4.7L17,53.5z"/>
<path class="st1" d="M32.1,5.3h-0.9h-0.4h-0.4l-0.9,0.1l-0.9,0.1c-0.1,0-0.3,0-0.4,0.1l-0.4,0.1c-0.3,0.1-0.6,0.1-0.9,0.2
	c-0.6,0.1-1.2,0.2-1.7,0.4c-1.1,0.3-2.3,0.7-3.3,1.2l-0.8,0.4C21,8,20.8,8,20.7,8.1l-0.4,0.2l-0.4,0.2h-0.1l-0.1,0.1l-0.2,0.1
	l-1,0.3c-0.3,0.2-0.5,0.3-0.8,0.5l-0.4,0.2c-0.1,0.1-0.2,0.2-0.4,0.3l-0.7,0.5L15.6,11l-0.3,0.3L15,11.6c-0.2,0.2-0.4,0.4-0.7,0.6
	l-0.6,0.6c-0.1,0.1-0.2,0.2-0.3,0.3L13,13.4c-0.2,0.2-0.4,0.4-0.6,0.6l-0.6,0.7c-0.1,0.1-0.2,0.2-0.3,0.3l-0.3,0.3
	c-0.2,0.2-0.4,0.5-0.5,0.7c-0.3,0.5-0.7,1-1,1.5l-0.2,0.4c-0.1,0.1-0.2,0.2-0.2,0.4l-0.4,0.8l-0.4-0.2l0.4-0.8
	C9,18,9.1,17.8,9.1,17.7l0.2-0.4c0.3-0.5,0.7-1,1-1.5c0.2-0.2,0.4-0.5,0.6-0.7l0.3-0.4c0.1-0.1,0.2-0.2,0.3-0.3l0.6-0.7
	c0.2-0.2,0.4-0.4,0.6-0.7l0.3-0.3c0.1-0.1,0.2-0.2,0.3-0.3l0.7-0.6c0.2-0.2,0.5-0.4,0.7-0.6l0.3-0.3l0.4-0.3l0.7-0.6l0.7-0.5
	c0.1-0.1,0.2-0.2,0.4-0.3L17.6,9c0.3-0.2,0.5-0.3,0.8-0.5l0.8-0.4L19.3,8h0.1l0.1-0.1l0.4-0.2l0.4-0.2c0.1-0.1,0.3-0.1,0.4-0.2
	L21.5,7c1.1-0.5,2.2-0.9,3.4-1.2c0.6-0.2,1.2-0.3,1.8-0.4c0.3-0.1,0.6-0.1,0.9-0.2L28,5.1c0.1,0,0.3,0,0.4-0.1l0.9-0.1l0.9-0.1h0.4
	h0.5H32v0.5H32.1z"/>
<path class="st0" d="M57.2,23.4c-0.6-1.7-1.3-3.4-2.3-5l0.4-0.2c0.9,1.6,1.7,3.3,2.3,5.1L57.2,23.4z"/>
<path class="st0" d="M49.7,12l-0.9-0.7c-0.3-0.2-0.6-0.5-0.9-0.7l0.3-0.3c0.3,0.2,0.6,0.5,0.9,0.7l0.9,0.8L49.7,12z"/>
<path class="st1" d="M47.1,9.9c-3.9-2.7-8.6-4.4-13.4-4.6V4.9c4.9,0.3,9.6,1.9,13.6,4.7L47.1,9.9z"/>
<path class="st1" d="M32.1,58.2H33h0.4h0.4l0.9-0.1l0.9-0.1c0.1,0,0.3,0,0.4-0.1l0.4-0.1c0.3-0.1,0.6-0.1,0.9-0.2
	c0.6-0.1,1.2-0.2,1.7-0.4c1.1-0.3,2.3-0.7,3.3-1.2l0.8-0.4c0.1-0.1,0.3-0.1,0.4-0.2l0.4-0.2l0.4-0.2h0.1l0.1-0.1l0.2-0.1l0.8-0.4
	c0.3-0.2,0.5-0.3,0.8-0.5l0.4-0.2c0.1-0.1,0.2-0.2,0.4-0.3l0.7-0.5l0.7-0.5l0.3-0.3l0.3-0.3c0.2-0.2,0.4-0.4,0.7-0.6l0.6-0.6
	c0.1-0.1,0.2-0.2,0.3-0.3L51,50c0.2-0.2,0.4-0.4,0.6-0.6l0.6-0.7c0.1-0.1,0.2-0.2,0.3-0.3l0.3-0.3c0.2-0.2,0.4-0.5,0.5-0.7
	c0.3-0.5,0.7-1,1-1.5l0.2-0.4c0.1-0.1,0.2-0.2,0.2-0.4l0.4-0.8l0.4,0.2l-0.4,0.8c-0.1,0.1-0.2,0.3-0.2,0.4l-0.2,0.4
	c-0.3,0.5-0.7,1-1,1.5c-0.2,0.2-0.4,0.5-0.6,0.7l-0.3,0.4c-0.1,0.1-0.2,0.2-0.3,0.3l-0.6,0.7c-0.2,0.2-0.4,0.4-0.6,0.7L51,50.7
	c-0.1,0.1-0.2,0.2-0.3,0.3L50,51.6c-0.2,0.2-0.5,0.4-0.7,0.6L49,52.5l-0.4,0.3l-0.7,0.6l-0.7,0.5c-0.1,0.1-0.2,0.2-0.4,0.3l-0.4,0.2
	c-0.3,0.2-0.5,0.3-0.8,0.5L45,55.3l-0.2,0.1l-0.1,0.1l-0.1,0.1l-0.4,0.2L43.8,56c-0.1,0.1-0.3,0.1-0.4,0.2l-0.8,0.4
	c-1.1,0.5-2.2,0.9-3.4,1.2c-0.6,0.2-1.2,0.3-1.8,0.4c-0.3,0.1-0.6,0.1-0.9,0.2l-0.4,0.1c-0.1,0-0.3,0-0.4,0.1l-0.9,0.1l-0.9,0.1
	h-0.4H33h-0.9L32.1,58.2L32.1,58.2z"/>
<path class="st2" d="M56.6,8.4c-0.4,0-0.8,0-1.2,0c0-0.4,0-0.8,0-1.2l-0.9-0.9c0,1.2,0,2,0,2.9c0.9,0,1.8,0,2.9,0L56.6,8.4z"/>
<path class="st3" d="M31.6,48.4c0.3-0.3,0.6-0.6,0.9-0.9c0.3,0.3,0.6,0.6,0.9,0.9h1.2c-0.8-0.8-1.4-1.4-2.1-2.1
	c-0.6,0.6-1.3,1.3-2.1,2.1H31.6z"/>
<path class="st3" d="M2.2,31.6c0.1,0.1,0.3,0.3,0.4,0.4c-0.1,0.1-0.2,0.2-0.4,0.4v0.5c0.4-0.4,0.6-0.6,0.9-0.9
	c-0.3-0.3-0.5-0.5-0.9-0.9L2.2,31.6z"/>
<path class="st4" d="M32.1,45c-7.3,0-13.3-6-13.3-13.3s6-13.3,13.3-13.3s13.3,6,13.3,13.3C45.4,39.1,39.4,45,32.1,45z M32.1,18.8
	c-7.1,0-12.9,5.8-12.9,12.9S25,44.6,32.1,44.6S45,38.8,45,31.7S39.2,18.8,32.1,18.8z"/>
<path class="st4" d="M58.1,56.5c-0.9,0-1.7-0.8-1.7-1.7s0.8-1.7,1.7-1.7c0.9,0,1.7,0.8,1.7,1.7C59.8,55.7,59,56.5,58.1,56.5z
	 M58.1,53.1c-0.9,0-1.7,0.7-1.7,1.7s0.7,1.7,1.7,1.7s1.7-0.7,1.7-1.7S59,53.1,58.1,53.1z"/>
<g class="st5">
	<path class="st1" d="M18,36c0.6,2.2,1.8,4.2,3.3,5.8L14.1,49c-2.8-2.9-4.9-6.5-6-10.4l2.6-0.7c0.4,0.8,1.2,1.4,2.1,1.4
		c1.3,0,2.4-1.1,2.4-2.4c0-0.1,0-0.1,0-0.2L18,36 M18.1,35.7L15,36.5c0,0.1,0,0.3,0,0.4c0,1.2-1,2.1-2.1,2.1c-0.9,0-1.7-0.6-2-1.4
		l-3,0.8c1.1,4.2,3.3,7.9,6.3,10.9l7.5-7.5C20,40.1,18.8,38,18.1,35.7L18.1,35.7z"/>
</g>
<path class="st3" d="M50,32.2c-0.1,3.1-0.9,5.9-2.4,8.4l6.2,3.6c2.1-3.6,3.3-7.7,3.4-12.1H50V32.2z"/>
<path class="st0" d="M7.1,34.4c0.1,1.3,0.4,2.5,0.7,3.7l3-0.8c0-0.1,0-0.3,0-0.4c0-1.2,1-2.1,2.1-2.1c0.9,0,1.7,0.6,2,1.4l3.2-0.8
	c-0.2-0.7-0.3-1.4-0.4-2.1L7.1,34.4z"/>
<path class="st3" d="M57,35.3c0.1-1,0.2-2,0.2-3.1H50c0,0.7-0.1,1.4-0.2,2L57,35.3z"/>
<path class="st3" d="M32.1,16.1c-8.3,0-15.2,6.6-15.6,14.8h1.4C18.1,23.2,24.5,17,32.3,17c2.4,0,4.7,0.6,6.7,1.6l0.4-0.8
	C37.2,16.7,34.7,16.1,32.1,16.1z"/>
<path class="st3" d="M32.1,15.5c2.7,0,5.3,0.7,7.6,1.9l4.5-8.1c-3.5-1.9-7.6-3-11.9-3C18.6,6.4,7.5,17.3,7.1,30.9h8.7
	C16.3,22.3,23.4,15.5,32.1,15.5z"/>
<g class="st6">
	<path class="st7" d="M44.7,10.2c3.2,1.9,6.1,4.6,8.1,7.7c1.1,1.6,2,3.4,2.6,5.2c0.7,1.8,1.1,3.7,1.3,5.6l-8.6,1
		c-0.6-4.9-3.5-9.3-7.7-11.8L44.7,10.2 M44.6,9.9l-4.4,8c4.2,2.5,7.2,6.9,7.8,12l9.1-1C56.1,20.8,51.4,13.8,44.6,9.9L44.6,9.9z"/>
</g>
<g>
	<polygon class="st1" points="13.9,13.6 9.4,9.2 1.8,9.2 1.8,9 9.5,9 14,13.5 	"/>
</g>
<g>
	<polygon class="st1" points="58.2,54.7 56,52.5 48.4,52.5 48.4,52.3 56.1,52.3 58.3,54.6 	"/>
</g>
<g>
	<path class="st1" d="M2.2,8.5C2.1,8.4,2,8.2,2,8V7c0-0.2,0.1-0.4,0.2-0.5c0.1-0.1,0.3-0.2,0.5-0.2s0.4,0.1,0.5,0.2S3.3,6.8,3.3,7v1
		c0,0.2-0.1,0.4-0.2,0.5S2.9,8.7,2.7,8.7S2.3,8.6,2.2,8.5z M2.9,8.3C3,8.2,3,8.1,3,8V7c0-0.1,0-0.2-0.1-0.3c0,0-0.1-0.1-0.2-0.1
		s-0.2,0-0.3,0.1c0,0.1-0.1,0.2-0.1,0.3v1c0,0.1,0,0.2,0.1,0.3s0.1,0.1,0.3,0.1C2.8,8.4,2.9,8.3,2.9,8.3z"/>
	<path class="st1" d="M3.9,8.5C3.8,8.4,3.7,8.2,3.7,8V7c0-0.2,0.1-0.4,0.2-0.5C4,6.4,4.2,6.3,4.4,6.3c0.2,0,0.4,0.1,0.5,0.2
		S5,6.8,5,7v1c0,0.2,0,0.4-0.1,0.5S4.6,8.7,4.4,8.7C4.2,8.7,4,8.6,3.9,8.5z M4.6,8.3C4.7,8.2,4.7,8.1,4.7,8V7c0-0.1,0-0.2-0.1-0.3
		c0,0-0.1-0.1-0.2-0.1s-0.2,0-0.3,0.1s0,0.2,0,0.3v1c0,0.1,0,0.2,0.1,0.3s0.1,0.1,0.3,0.1S4.6,8.3,4.6,8.3z"/>
	<path class="st1" d="M6.1,8.6H5.7V6.7L5.4,6.9V6.6l0.3-0.2H6L6.1,8.6L6.1,8.6z"/>
	<path class="st1" d="M6.8,8.5C6.6,8.4,6.6,8.2,6.6,8V7c0-0.2,0.1-0.4,0.2-0.5C6.9,6.4,7,6.3,7.2,6.3s0.4,0.1,0.5,0.2
		C7.8,6.6,7.9,6.8,7.9,7v1c0,0.2-0.1,0.4-0.2,0.5S7.5,8.7,7.2,8.7C7,8.7,6.9,8.6,6.8,8.5z M7.5,8.3c0-0.1,0.1-0.2,0.1-0.3V7
		c0-0.1,0-0.2-0.1-0.3c-0.1,0-0.1-0.1-0.3-0.1S7,6.7,7,6.7S6.9,6.9,6.9,7v1c0,0.1,0,0.2,0.1,0.3c0,0,0.1,0.1,0.2,0.1
		S7.4,8.3,7.5,8.3z"/>
	<path class="st1" d="M8.9,8.6H8.6V6.7L8.3,6.9V6.6l0.3-0.2h0.3C8.9,6.4,8.9,8.6,8.9,8.6z"/>
</g>
<path class="st8" d="M53,16.6c3.1,4.3,5,9.6,5,15.3c0,5.6-1.8,10.8-4.8,15v0.5c3.2-4.4,5.1-9.7,5.1-15.5c0-5.9-2-11.4-5.1-15.9
	L53,16.6z"/>
<path class="st8" d="M10.7,47.5c-3.2-4.4-5.1-9.7-5.1-15.6S7.7,20.4,11,16v0.5c-3.2,4.3-5.1,9.6-5.1,15.4c0,5.7,1.8,10.9,4.9,15.2
	L10.7,47.5z"/>
<circle class="st1" cx="8.5" cy="20.3" r="0.8"/>
<rect x="21.4" y="31.8" class="st0" width="21.3" height="0.1"/>
<rect x="31.9" y="21.1" class="st0" width="0.1" height="21.3"/>
<path class="st0" d="M32,36.3v0.2c-2.6,0-4.7-2.1-4.7-4.7s2.1-4.7,4.7-4.7s4.7,2.1,4.7,4.7s-2.1,4.7-4.7,4.7V36.3
	c2.5,0,4.4-2,4.4-4.5s-2-4.5-4.5-4.5s-4.5,2-4.5,4.5C27.5,34.3,29.5,36.3,32,36.3z"/>
<path class="st0" d="M32.1,28.1L32.1,28.1c2.1,0,3.7,1.6,3.7,3.7s-1.7,3.8-3.8,3.8s-3.8-1.7-3.8-3.8s1.7-3.7,3.7-3.8v0.1
	c-2,0-3.7,1.7-3.7,3.7s1.7,3.7,3.7,3.7s3.7-1.7,3.7-3.7C35.7,29.9,34,28.1,32.1,28.1z"/>
<circle class="st1" cx="58.1" cy="54.8" r="0.7"/>
<text transform="matrix(1 0 0 1 53.5 57.416)" class="st1 st9 st10">&lt;::M.F.L.J.J::&gt;</text>
<text transform="matrix(1 0 0 1 54.9 59.1403)" class="st1 st9 st10">BIT BLOCKZ</text>
<text transform="matrix(1 0 0 1 32.7199 33.7499)" class="st1 st9 st10">T3</text>
<text transform="matrix(1 0 0 1 31.2033 61.0231)" class="st1 st9 st10">T3</text>
</svg>
