<svg xmlns="http://www.w3.org/2000/svg" width="195" height="45" viewBox="0 0 195 45" fill="none">
    <path d="M2.96376 20V33.1649L0.552963 33.8461V39.5578C0.552963 40.1719 0.672516 40.7801 0.9048 41.3475C1.13708 41.9149 1.47754 42.4303 1.90671 42.8644C2.33586 43.2985 2.84532 43.6427 3.40594 43.8773C3.96657 44.1119 4.56737 44.2324 5.174 44.2318H178.701C179.925 44.2352 181.101 43.7487 181.972 42.8783L192.645 32.073C193.504 31.1926 193.985 30.0038 193.981 28.7661V24.6334L191.571 23.9522V10.7738L193.981 10.0926V4.67866C193.981 3.43784 193.495 2.24784 192.628 1.37045C191.761 0.493059 190.586 0.0001425 189.36 0.0001425L15.8465 0.0001425C14.6238 -0.00351148 13.4494 0.483112 12.5801 1.35362L1.90764 12.1589C1.04659 13.0382 0.56572 14.2277 0.570786 15.4659V19.2872L2.96376 20Z" fill="#68BDE3"/>
    <path d="M1.56885 31.3105V21.8497L0.000280976 21.4166V31.7482L1.56885 31.3105Z" fill="#3A769A"/>
    <path d="M193.216 12.6281V22.0843L194.784 22.522V12.1904L193.216 12.6281Z" fill="#3A769A"/>
</svg>