<svg width="220" height="50" viewBox="0 0 220 50" fill="none" xmlns="http://www.w3.org/2000/svg">
	<path d="M3.6477 22.6267V37.4298L0.936902 38.1959V44.6183C0.936902 45.3089 1.07133 45.9928 1.33252 46.6308C1.59371 47.2687 1.97654 47.8483 2.45911 48.3364C2.94167 48.8245 3.51453 49.2116 4.14492 49.4754C4.77531 49.7392 5.45088 49.8747 6.133 49.874H201.255C202.631 49.8778 203.953 49.3308 204.933 48.3521L216.933 36.2022C217.9 35.2122 218.44 33.8755 218.437 32.4836V27.8367L215.726 27.0707V12.2524L218.437 11.4863V5.3987C218.437 4.00346 217.889 2.66538 216.915 1.6788C215.94 0.69222 214.619 0.137962 213.24 0.137962L18.1336 0.137962C16.7588 0.133854 15.4383 0.681035 14.4608 1.65987L2.46016 13.8098C1.49195 14.7985 0.951242 16.1361 0.956947 17.5283V21.8252L3.6477 22.6267Z" fill="#B83766"/>
	<path d="M2.0791 35.3449V24.7067L0.315335 24.2197V35.837L2.0791 35.3449Z" fill="white"/>
	<path d="M217.576 14.3373V24.9704L219.339 25.4625V13.8452L217.576 14.3373Z" fill="white"/>
</svg>