<svg width="251" height="59" viewBox="0 0 251 59" fill="none" xmlns="http://www.w3.org/2000/svg">
<path d="M3.81177 26.6476V44.1882L0.711058 45.0959V52.7061C0.711058 53.5244 0.864823 54.3347 1.16358 55.0906C1.46234 55.8466 1.90023 56.5334 2.45221 57.1118C3.00419 57.6901 3.65944 58.1487 4.38051 58.4613C5.10157 58.7739 5.87431 58.9344 6.65455 58.9337H229.842C231.416 58.9381 232.928 58.29 234.049 57.1303L247.776 42.7335C248.881 41.5605 249.499 39.9765 249.495 38.3273V32.8211L246.394 31.9134V14.3547L249.495 13.447V6.23362C249.495 4.58037 248.869 2.99483 247.754 1.82581C246.64 0.656782 245.128 2.72206e-05 243.552 2.72206e-05L20.3813 2.72206e-05C18.8087 -0.00484129 17.2982 0.64353 16.1802 1.80338L2.45341 16.2002C1.34594 17.3717 0.727462 18.9566 0.733987 20.6064V25.6978L3.81177 26.6476Z" fill="#DEAF07"/>
<path d="M2.01758 41.7177V29.1122L0.000117244 28.5352V42.3008L2.01758 41.7177Z" fill="white"/>
<path d="M248.511 16.8253V29.4247L250.528 30.0078V16.2422L248.511 16.8253Z" fill="white"/>
</svg>
