<svg width="260" height="60" viewBox="0 0 260 60" fill="none" xmlns="http://www.w3.org/2000/svg">
    <path d="M4.04929 27.3612V44.9018L0.837189 45.8095V53.4197C0.837189 54.238 0.99646 55.0483 1.30597 55.8043C1.61545 56.5602 2.06906 57.247 2.64088 57.8254C3.21269 58.4037 3.89148 58.8623 4.63844 59.175C5.38541 59.4876 6.18591 59.6481 6.99419 59.6473H238.2C239.83 59.6518 241.397 59.0036 242.558 57.8439L256.777 43.4471C257.922 42.2741 258.563 40.6902 258.559 39.0409V33.5347L255.346 32.627V15.0684L258.559 14.1607V6.94724C258.559 5.29399 257.91 3.70846 256.755 2.53943C255.601 1.37041 254.035 0.71365 252.402 0.71365L21.2141 0.71365C19.585 0.708782 18.0202 1.35715 16.862 2.517L2.64212 16.9138C1.49487 18.0853 0.854187 19.6702 0.860931 21.32V26.4115L4.04929 27.3612Z" fill="#9F0D8E"/>
    <path d="M2.19043 42.4313V29.8259L0.100493 29.2488V43.0144L2.19043 42.4313Z" fill="white"/>
    <path d="M257.538 17.5389V30.1383L259.628 30.7214V16.9558L257.538 17.5389Z" fill="white"/>
</svg>
